{"glyphs":{"0":{"ha":854,"x_min":0,"x_max":0,"o":"m 144 411 b 144 428 144 415 144 421 l 144 438 b 199 675 144 503 153 594 b 286 769 221 713 250 746 b 410 810 328 797 372 808 b 415 810 411 810 415 810 b 536 776 457 810 500 797 b 629 683 574 754 606 721 b 694 417 678 606 694 514 b 636 168 694 349 686 251 b 550 78 614 132 585 100 b 432 40 515 56 474 42 b 426 40 431 40 426 40 b 310 71 386 40 344 51 b 218 158 274 92 242 122 b 149 411 171 231 151 319 z m 65 428 b 65 408 65 417 65 413 b 149 111 68 307 89 201 b 269 -4 179 65 219 25 b 426 -47 317 -32 371 -47 b 435 -47 429 -47 432 -47 b 596 3 493 -46 549 -28 b 708 121 643 33 681 75 b 779 413 763 211 779 314 b 701 725 779 519 761 629 b 582 846 672 772 632 815 b 418 892 533 875 476 892 b 410 892 415 892 413 892 b 244 839 360 890 300 876 b 131 715 196 807 158 764 b 64 438 81 629 64 532 z "},"1":{"ha":442,"x_min":0,"x_max":0,"o":"m 261 886 l 46 761 b 31 706 26 750 19 725 b 86 690 42 686 67 679 l 301 815 b 317 871 321 826 328 851 b 261 886 306 890 281 897 z m 324 0 l 324 697 b 282 739 324 721 306 739 b 240 697 258 739 240 721 l 240 0 b 282 -42 240 -24 258 -42 b 324 0 306 -42 324 -24 z "},"2":{"ha":713,"x_min":0,"x_max":0,"o":"m 231 -42 l 586 -42 b 628 0 610 -42 628 -24 b 586 42 628 24 610 42 l 231 42 b 189 0 207 42 189 24 b 231 -42 189 -24 207 -42 z m 79 25 b 81 -4 79 15 79 6 b 125 -42 82 -26 103 -43 b 164 4 149 -40 165 -19 b 164 25 164 11 164 18 b 208 175 164 76 179 129 b 361 325 231 210 267 256 b 546 482 422 371 492 417 b 604 582 571 511 592 544 b 617 660 613 607 617 633 b 613 701 617 674 615 688 b 526 836 601 754 571 803 b 369 888 476 874 417 888 l 367 888 b 206 839 318 888 258 875 b 110 704 158 806 124 758 b 140 654 104 682 118 660 b 190 685 163 649 185 663 b 253 772 199 718 221 750 b 364 808 289 799 331 808 l 367 808 b 475 772 399 808 440 799 b 529 688 504 750 524 719 b 532 663 531 679 532 671 b 524 613 532 646 529 629 b 481 539 515 588 500 563 b 310 397 438 488 374 444 b 136 225 246 350 181 296 b 79 32 100 167 79 100 z "},"3":{"ha":724,"x_min":0,"x_max":0,"o":"m 133 757 b 118 708 126 742 121 725 b 151 660 114 686 129 664 b 200 693 174 656 196 671 b 208 722 201 703 204 713 b 225 750 213 732 218 742 b 249 774 232 758 240 767 b 278 792 257 781 267 786 b 313 804 289 797 300 801 b 350 808 325 807 338 808 l 351 808 l 353 808 l 354 808 b 388 804 365 808 376 807 b 421 794 399 801 410 799 b 449 779 431 790 440 785 b 474 757 458 772 467 765 b 493 731 481 749 488 740 b 506 701 499 721 503 711 b 510 692 507 699 508 696 b 510 682 510 689 510 686 b 510 669 510 676 510 675 b 508 651 510 664 510 658 b 504 635 507 646 506 640 b 499 618 503 629 501 624 b 485 593 494 610 490 601 b 465 568 479 585 472 576 b 442 549 458 561 450 554 b 406 528 431 540 418 533 b 365 518 393 524 379 521 b 324 514 351 515 338 514 b 282 472 300 514 282 496 b 324 431 282 449 300 431 b 378 435 342 431 360 432 b 435 449 397 438 417 442 b 489 478 454 456 472 465 b 525 508 501 488 514 497 b 554 544 536 519 546 532 b 575 585 563 557 569 571 b 585 611 579 593 582 601 b 590 640 588 621 589 631 b 592 668 592 651 592 660 b 592 688 592 674 592 682 b 589 706 592 694 590 700 b 585 724 588 713 586 718 b 565 771 581 740 574 756 b 536 813 557 786 547 800 b 499 846 525 825 513 836 b 454 871 485 856 469 864 b 406 886 439 878 422 883 b 356 890 389 889 372 890 l 354 890 l 353 890 l 351 890 b 297 883 333 890 315 888 b 246 865 279 879 263 874 b 200 836 229 857 214 847 b 163 799 186 825 174 813 b 135 754 151 785 142 769 z m 601 368 b 535 438 582 401 556 424 b 476 425 515 450 489 444 b 489 367 464 406 469 379 b 529 326 499 361 518 346 b 554 232 546 299 554 265 b 531 136 554 203 549 169 b 460 67 515 108 490 83 b 332 35 426 47 383 35 b 185 78 278 35 224 50 b 143 118 168 89 154 103 b 85 126 129 136 103 140 b 76 68 67 113 63 86 b 138 10 93 46 114 26 b 333 -49 200 -35 275 -49 b 504 -7 401 -49 460 -32 b 606 94 547 18 582 53 b 640 231 632 142 640 190 b 603 367 640 278 628 325 z "},"4":{"ha":639,"x_min":0,"x_max":0,"o":"m 29 231 l 383 231 b 425 272 407 231 425 249 b 383 314 425 296 407 314 l 107 314 l 444 826 b 432 885 457 846 451 872 b 374 872 413 897 386 892 l -7 294 b -8 251 -15 281 -15 265 b 28 229 -1 238 11 229 z m 532 -1 l 532 603 b 490 644 532 626 514 644 b 449 603 467 644 449 626 l 449 -1 b 490 -43 449 -25 467 -43 b 532 -1 514 -43 532 -25 z "},"5":{"ha":732,"x_min":0,"x_max":0,"o":"m 221 67 b 171 103 203 76 186 89 b 113 100 154 118 128 117 b 115 42 97 83 99 57 b 183 -4 136 24 158 8 b 261 -33 208 -17 235 -26 b 343 -44 288 -40 315 -44 b 357 -44 347 -44 353 -44 b 371 -44 361 -44 367 -44 b 385 -44 375 -44 381 -44 b 449 -29 407 -42 428 -36 b 507 -1 469 -22 489 -12 b 558 39 525 10 543 24 b 599 92 574 54 588 72 b 626 153 610 111 619 132 b 639 218 633 174 638 196 b 639 224 639 219 639 222 b 639 229 639 225 639 228 l 639 233 b 633 286 639 251 638 269 b 617 338 629 304 624 321 b 592 385 610 354 601 369 b 554 429 581 400 568 415 b 435 499 521 463 479 486 b 333 513 401 508 367 513 b 300 511 322 513 311 513 b 213 499 271 510 242 506 b 143 478 189 493 165 486 b 118 424 121 469 110 446 b 172 399 126 401 150 390 b 233 415 192 406 213 411 b 308 426 258 421 283 425 b 333 426 317 426 325 426 b 413 417 361 426 388 424 b 499 368 444 407 475 390 b 524 338 508 358 517 349 b 540 306 531 328 536 317 b 551 269 544 294 549 282 b 556 232 554 257 556 244 l 556 229 b 556 228 556 229 556 228 b 556 226 556 228 556 226 b 547 181 554 211 551 196 b 528 138 543 165 536 151 b 499 100 519 124 510 111 b 461 71 488 89 475 79 b 418 50 447 63 433 56 b 372 38 403 44 388 40 b 361 38 368 38 361 38 b 350 38 357 38 350 38 b 339 38 346 38 339 38 b 276 46 318 38 297 40 b 218 68 256 51 236 58 z m 117 849 l 117 557 b 158 515 117 533 135 515 b 200 557 182 515 200 533 l 200 849 b 158 890 200 872 182 890 b 117 849 135 890 117 872 z m 540 890 l 278 890 b 236 849 254 890 236 872 b 278 807 236 825 254 807 l 540 807 b 582 849 564 807 582 825 b 540 890 582 872 564 890 z "},"6":{"ha":732,"x_min":0,"x_max":0,"o":"m 336 518 b 278 513 317 518 297 517 b 244 464 256 508 240 486 b 293 431 249 442 271 426 b 338 435 307 433 322 435 b 358 435 344 435 351 435 b 458 404 394 432 429 421 b 536 326 492 385 518 357 b 561 232 553 297 561 264 b 560 211 561 225 561 218 b 508 103 556 172 538 133 b 378 42 476 71 428 47 b 354 40 371 40 363 40 b 249 67 317 40 279 50 b 164 153 211 88 182 118 b 138 281 153 175 138 217 b 149 369 138 311 142 342 b 275 610 169 457 214 529 b 538 825 342 697 432 772 b 557 881 558 835 567 860 b 501 900 547 901 522 910 b 211 663 386 842 286 760 b 69 392 147 579 94 496 b 57 282 61 357 57 319 b 94 115 57 199 79 144 b 215 -6 121 65 163 22 b 361 -42 260 -29 310 -42 b 394 -40 372 -42 383 -42 b 576 44 464 -33 529 -3 b 653 200 619 88 646 143 b 654 229 654 210 654 219 b 618 365 654 276 642 324 b 511 472 593 408 557 446 b 376 515 471 496 425 511 b 347 517 367 517 357 517 z "},"7":{"ha":671,"x_min":0,"x_max":0,"o":"m 460 722 l 111 18 b 131 -37 101 -3 110 -28 b 186 -18 151 -47 176 -39 l 535 686 b 515 742 544 707 536 732 b 460 722 494 751 469 743 z m 121 808 l 569 808 b 611 850 593 808 611 826 b 569 892 611 874 593 892 l 121 892 b 79 850 97 892 79 874 b 121 808 79 826 97 808 z "},"8":{"ha":707,"x_min":0,"x_max":0,"o":"m 488 606 b 471 574 483 594 478 583 b 479 515 457 556 461 529 b 538 524 497 501 524 506 b 565 574 549 539 558 556 b 582 658 576 600 582 629 b 565 744 582 688 576 717 b 461 863 546 794 508 836 b 349 892 426 882 388 892 b 307 888 335 892 321 890 b 150 781 239 875 182 832 b 115 658 131 749 115 707 b 125 592 115 636 118 614 b 256 446 144 526 193 472 b 351 425 274 439 313 429 b 429 408 375 422 415 415 b 528 294 475 386 511 343 b 539 229 535 274 539 251 b 522 149 539 201 533 174 b 417 50 501 104 463 67 b 353 39 397 43 375 39 b 250 69 322 39 285 47 b 161 215 201 101 167 157 b 160 236 160 222 160 229 b 188 338 160 276 172 311 b 217 374 196 350 206 363 b 217 433 233 390 233 417 b 157 433 200 450 174 450 b 117 381 142 418 128 400 b 76 235 94 343 76 293 b 78 206 76 225 76 215 b 204 -1 86 122 133 44 b 353 -44 254 -33 308 -44 b 444 -28 383 -44 415 -39 b 597 114 513 -3 568 49 b 622 231 614 150 622 190 b 607 321 622 261 617 292 b 468 482 583 390 533 450 b 363 507 440 496 390 504 b 290 522 333 510 304 517 b 206 615 254 538 219 572 b 199 658 201 629 199 643 b 221 739 199 690 208 718 b 324 808 242 772 279 800 b 349 811 332 810 340 811 b 421 792 374 811 399 804 b 488 715 450 775 475 747 b 499 660 494 699 499 679 b 489 607 499 642 496 624 z "},"9":{"ha":694,"x_min":0,"x_max":0,"o":"m 338 350 b 383 354 353 350 368 351 b 417 401 406 358 421 379 b 369 435 413 424 392 439 b 336 432 358 433 347 432 b 282 439 318 432 300 435 b 183 499 250 447 213 465 b 142 611 156 531 142 571 b 142 625 142 615 142 619 b 201 749 146 669 167 714 b 313 806 226 774 265 797 b 346 808 324 807 335 808 b 436 786 378 808 410 800 b 503 718 460 772 485 750 b 533 625 519 690 529 658 b 538 572 536 608 538 590 b 522 458 538 535 532 496 b 408 233 501 379 461 303 b 196 32 350 157 278 89 b 185 -26 176 19 172 -7 b 243 -37 197 -46 224 -50 b 475 182 332 25 411 99 b 603 438 533 258 579 344 b 621 574 614 482 621 528 b 617 636 621 594 619 615 b 576 758 611 678 599 719 b 476 856 549 804 511 836 b 349 889 438 878 393 889 b 303 885 333 889 318 888 b 149 804 243 874 189 844 b 64 629 100 757 69 694 b 63 607 63 621 63 614 b 124 440 63 547 83 488 b 265 353 165 392 219 365 b 340 343 290 346 315 343 z "}," ":{"ha":264,"x_min":0,"x_max":0,"o":""},"!":{"ha":181,"x_min":0,"x_max":0,"o":"m 49 894 l 49 214 b 90 172 49 190 67 172 b 132 214 114 172 132 190 l 132 894 b 90 936 132 918 114 936 b 49 894 67 936 49 918 z m 90 144 b -3 51 39 144 -3 103 b 90 -42 -3 0 39 -42 b 183 51 142 -42 183 0 b 90 144 183 103 142 144 z "},"\"":{"ha":190,"x_min":0,"x_max":0,"o":"m 189 683 l 189 901 b 147 943 189 925 171 943 b 106 901 124 943 106 925 l 106 683 b 147 642 106 660 124 642 b 189 683 171 642 189 660 z m 85 683 l 85 901 b 43 943 85 925 67 943 b 1 901 19 943 1 925 l 1 683 b 43 642 1 660 19 642 b 85 683 67 642 85 660 z "},"#":{"ha":568,"x_min":0,"x_max":0,"o":"m 361 349 l 342 275 l 176 275 l 196 349 z m 351 -11 l 406 192 l 489 192 b 531 233 513 192 531 210 b 489 275 531 257 513 275 l 428 275 l 447 349 l 489 349 b 531 390 513 349 531 367 b 489 432 531 414 513 432 l 469 432 l 515 606 b 485 656 521 628 507 650 b 435 625 463 661 440 647 l 383 429 l 218 429 l 264 603 b 233 653 269 625 256 647 b 183 622 211 658 189 644 l 132 426 l 53 426 b 11 385 29 426 11 408 b 53 343 11 361 29 343 l 110 343 l 90 269 l 53 269 b 11 228 29 269 11 251 b 53 186 11 204 29 186 l 68 186 l 19 6 b 50 -44 14 -17 28 -39 b 100 -14 72 -50 94 -36 l 154 189 l 319 189 l 271 8 b 301 -42 265 -14 279 -36 b 351 -11 324 -47 346 -33 z "},"$":{"ha":617,"x_min":0,"x_max":0,"o":"m 347 557 l 347 710 b 306 751 347 733 329 751 b 264 710 282 751 264 733 l 264 557 b 306 515 264 533 282 515 b 347 557 329 515 347 533 z m 347 107 l 347 318 b 306 360 347 342 329 360 b 264 318 282 360 264 342 l 264 107 b 306 65 264 83 282 65 b 347 107 329 65 347 83 z m 347 -142 l 347 -101 b 306 -60 347 -78 329 -60 b 264 -101 282 -60 264 -78 l 264 -142 b 306 -183 264 -165 282 -183 b 347 -142 329 -183 347 -165 z m 110 97 b 61 129 93 107 76 118 b 3 121 43 143 17 139 b 11 63 -11 103 -7 76 b 68 25 29 49 49 36 b 260 -40 126 -8 192 -32 b 318 -44 279 -43 299 -44 b 442 -26 360 -44 401 -39 b 579 61 493 -10 543 18 b 633 203 613 100 633 150 b 633 218 633 207 633 214 b 592 331 631 264 613 303 b 504 407 568 363 538 388 b 304 474 442 443 365 456 b 179 532 278 481 221 497 b 139 581 163 546 149 563 b 122 636 129 597 124 617 b 122 643 122 639 122 643 b 139 707 122 665 128 688 b 193 758 150 725 168 744 b 269 779 215 771 242 778 b 285 779 275 779 281 779 b 353 768 307 779 331 775 b 494 672 415 750 464 711 b 540 660 506 658 522 654 b 568 697 558 665 568 679 l 568 818 b 526 860 568 842 550 860 b 485 818 503 860 485 842 l 485 793 b 374 846 451 817 414 835 b 319 858 356 851 338 856 b 346 897 335 864 346 879 l 346 942 b 304 983 346 965 328 983 b 263 942 281 983 263 965 l 263 897 b 285 861 263 882 271 868 l 281 861 b 263 861 274 861 267 861 b 150 829 224 858 185 849 b 65 747 110 807 82 776 b 38 643 47 715 38 679 b 38 632 38 640 38 635 b 64 542 39 600 49 569 b 124 471 79 514 100 490 b 279 396 171 432 226 411 b 463 336 342 378 410 367 b 525 283 488 322 510 304 b 551 215 540 263 550 239 b 551 206 551 211 551 210 b 517 118 551 175 539 143 b 417 56 493 90 457 68 b 319 42 386 46 353 42 b 272 44 304 42 288 43 b 110 100 215 51 160 71 z "},"%":{"ha":876,"x_min":0,"x_max":0,"o":"m 739 919 l 56 25 b 64 -33 42 7 46 -19 b 122 -25 82 -47 108 -43 l 806 869 b 797 928 819 888 815 914 b 739 919 779 942 753 938 z m 464 221 b 464 206 464 221 464 206 b 510 46 465 153 476 96 b 576 -18 526 21 549 -1 b 665 -42 603 -33 633 -42 b 671 -42 667 -42 669 -42 b 763 -12 699 -40 732 -32 b 825 53 789 4 810 28 b 863 210 854 103 863 158 b 821 376 863 260 856 321 b 753 443 804 403 782 426 b 660 469 721 463 688 469 b 654 469 658 469 656 469 b 561 439 626 468 593 460 b 497 369 533 421 513 396 b 461 219 469 322 461 269 z m 544 207 b 544 219 544 207 544 219 b 569 328 544 260 551 297 b 607 368 579 344 592 358 b 657 383 624 379 642 383 l 660 383 b 710 369 675 383 693 379 b 749 329 725 360 739 346 b 778 206 769 294 778 253 b 751 92 778 164 771 124 b 715 53 742 76 729 63 b 665 38 699 42 681 38 l 663 38 b 615 50 646 38 629 42 b 576 86 600 58 586 71 b 544 201 556 118 546 158 z m -7 699 b -7 683 -7 699 -7 683 b 39 524 -6 631 6 574 b 106 460 56 499 78 476 b 194 436 132 444 163 436 b 200 436 196 436 199 436 b 292 465 228 438 261 446 b 354 531 318 482 339 506 b 392 688 383 581 392 636 b 350 854 392 738 385 799 b 282 921 333 881 311 904 b 189 947 250 940 217 947 b 183 947 188 947 185 947 b 90 917 156 946 122 938 b 26 847 63 899 42 874 b -10 697 -1 800 -10 747 z m 74 685 b 74 697 74 685 74 697 b 99 806 74 738 81 775 b 136 846 108 822 121 836 b 186 861 153 857 171 861 l 189 861 b 239 847 204 861 222 857 b 278 807 254 838 268 824 b 307 683 299 772 307 731 b 281 569 307 642 300 601 b 244 531 271 554 258 540 b 194 515 228 519 210 515 l 192 515 b 144 528 175 515 158 519 b 106 564 129 536 115 549 b 74 679 85 596 75 636 z "},"&":{"ha":979,"x_min":0,"x_max":0,"o":"m 813 -19 b 871 63 828 -10 858 17 b 842 113 876 85 864 107 b 792 83 819 118 797 106 b 767 49 786 64 774 53 b 733 39 758 43 747 39 b 725 39 731 39 725 39 b 685 63 704 42 690 56 l 265 588 b 238 649 251 606 242 626 b 235 674 236 657 235 665 b 242 715 235 688 238 701 b 282 776 250 742 265 763 b 346 804 297 789 319 801 b 356 804 349 804 351 804 b 414 788 372 804 394 800 b 450 731 424 781 444 761 b 450 717 450 726 450 722 b 439 674 450 703 446 688 b 396 625 431 657 417 640 b 354 600 383 615 369 607 b 335 544 333 590 325 565 b 390 525 344 524 369 515 b 447 560 410 535 429 546 b 514 638 479 583 500 611 b 533 718 526 663 533 690 b 531 746 533 729 532 738 b 460 857 522 793 494 832 b 353 890 428 879 390 890 b 333 890 344 890 339 890 b 224 843 293 886 254 869 b 157 746 189 814 168 778 b 146 676 150 724 146 700 b 150 639 146 664 147 651 b 194 540 157 603 172 569 l 614 15 b 707 -40 636 -15 669 -35 b 725 -40 711 -40 721 -40 b 804 -17 749 -40 778 -35 z m 136 407 b 157 425 143 414 150 419 b 164 483 175 439 178 465 b 106 490 150 501 124 504 b 78 467 96 483 86 475 b -15 282 28 418 -7 353 b -17 249 -17 271 -17 260 b 21 104 -17 199 -4 149 b 154 -19 51 50 99 7 b 283 -49 194 -39 239 -49 b 329 -44 299 -49 314 -47 b 492 31 381 -36 439 -14 b 506 44 496 35 500 39 b 508 103 522 60 524 86 b 450 106 493 119 467 121 b 440 96 446 101 443 99 b 321 40 401 63 358 46 b 288 38 310 39 299 38 b 192 58 254 38 221 44 b 96 146 151 76 117 108 b 68 249 78 176 68 213 b 69 274 68 257 68 265 b 138 408 75 324 100 372 z m 568 325 b 550 283 561 311 556 297 b 574 231 542 263 553 239 b 626 254 594 222 618 233 b 643 290 632 267 638 279 b 672 335 647 300 657 321 b 703 350 681 342 690 349 b 707 350 704 350 707 350 l 708 350 b 728 343 714 350 722 349 b 735 328 733 339 735 333 b 776 286 735 304 753 286 b 818 328 800 286 818 304 b 785 403 818 357 806 383 b 707 433 763 424 735 433 b 701 433 706 433 703 433 b 689 433 697 433 692 433 b 611 396 657 429 638 417 b 564 326 589 375 575 350 z "},"'":{"ha":224,"x_min":0,"x_max":0,"o":"m 144 938 l 144 938 b 114 942 135 940 125 942 l 113 942 b 19 849 61 942 19 900 b 83 760 19 807 46 772 b 43 728 75 751 58 736 b 25 671 22 717 14 692 b 82 653 36 650 61 642 b 150 708 113 669 139 696 b 190 761 164 724 178 740 b 210 833 204 786 210 811 b 210 839 210 835 210 838 b 192 894 208 861 201 881 b 143 933 181 913 164 926 z "},"(":{"ha":336,"x_min":0,"x_max":0,"o":"m 64 431 b 189 -56 64 261 107 93 b 246 -72 200 -76 225 -83 b 263 -15 267 -61 274 -36 b 147 432 188 121 147 276 l 147 432 b 260 876 147 586 186 740 b 243 933 271 897 264 922 b 186 917 222 944 197 938 b 63 433 106 769 63 601 z "},")":{"ha":336,"x_min":0,"x_max":0,"o":"m 172 431 b 57 -17 172 275 132 119 b 74 -74 46 -37 53 -62 b 131 -57 94 -85 119 -78 b 256 429 213 92 256 260 l 256 429 b 132 913 256 597 213 765 b 75 929 121 933 96 940 b 58 872 54 918 47 893 b 171 428 132 736 171 582 z "},"*":{"ha":371,"x_min":0,"x_max":0,"o":"m 228 617 l 228 683 l 286 650 b 342 665 306 639 331 646 b 326 721 353 685 346 710 l 268 754 l 326 788 b 342 843 346 799 353 824 b 286 858 331 863 306 869 l 228 825 l 228 892 b 186 933 228 915 210 933 b 144 892 163 933 144 915 l 144 825 l 86 858 b 31 843 67 869 42 863 b 46 788 19 824 26 799 l 104 754 l 46 721 b 31 665 26 710 19 685 b 86 650 42 646 67 639 l 144 683 l 144 617 b 186 575 144 593 163 575 b 228 617 210 575 228 593 z "},"+":{"ha":568,"x_min":0,"x_max":0,"o":"m 239 572 l 239 432 l 93 432 b 51 390 69 432 51 414 b 93 349 51 367 69 349 l 239 349 l 239 200 b 281 158 239 176 257 158 b 322 200 304 158 322 176 l 322 349 l 465 349 b 507 390 489 349 507 367 b 465 432 507 414 489 432 l 322 432 l 322 572 b 281 614 322 596 304 614 b 239 572 257 614 239 596 z "},",":{"ha":289,"x_min":0,"x_max":0,"o":"m 168 139 b 144 143 160 142 151 143 b 136 143 142 143 139 143 l 136 143 l 135 143 b 44 53 85 143 44 103 b 110 -35 44 11 72 -24 b 65 -81 96 -50 81 -65 b 64 -139 49 -96 49 -122 b 122 -140 79 -156 106 -156 b 172 -89 139 -124 156 -107 b 213 -36 186 -74 200 -57 b 232 36 226 -11 232 14 b 232 42 232 38 232 40 b 214 97 231 64 224 83 b 165 136 203 115 186 129 z "},"-":{"ha":282,"x_min":0,"x_max":0,"o":"m 258 432 l 21 432 b -21 390 -3 432 -21 414 b 21 349 -21 367 -3 349 l 257 349 b 299 390 281 349 299 367 b 257 432 299 414 281 432 z "},".":{"ha":236,"x_min":0,"x_max":0,"o":"m 117 144 b 24 51 65 144 24 103 b 117 -42 24 0 65 -42 b 210 51 168 -42 210 0 b 117 144 210 103 168 144 z "},"/":{"ha":444,"x_min":0,"x_max":0,"o":"m 129 -25 l 410 869 b 382 922 417 892 404 915 b 329 894 360 929 336 917 l 49 0 b 76 -53 42 -22 54 -46 b 129 -25 99 -60 122 -47 z "},":":{"ha":272,"x_min":0,"x_max":0,"o":"m 118 667 b 25 574 67 667 25 625 b 118 481 25 522 67 481 b 211 574 169 481 211 522 b 118 667 211 625 169 667 z m 118 144 b 25 51 67 144 25 103 b 118 -42 25 0 67 -42 b 211 51 169 -42 211 0 b 118 144 211 103 169 144 z "},";":{"ha":269,"x_min":0,"x_max":0,"o":"m 128 667 b 35 574 76 667 35 625 b 128 481 35 522 76 481 b 221 574 179 481 221 522 b 128 667 221 625 179 667 z m 160 139 l 160 139 b 129 143 150 142 140 143 l 128 143 b 35 50 76 143 35 101 b 99 -39 35 8 61 -26 b 58 -81 86 -53 72 -67 b 57 -139 42 -96 42 -122 b 115 -140 72 -156 99 -156 b 165 -89 132 -124 149 -107 b 206 -36 179 -74 193 -57 b 225 36 219 -11 225 14 b 225 42 225 38 225 40 b 207 97 224 64 217 83 b 158 136 196 115 179 129 z "},"<":{"ha":181,"x_min":0,"x_max":0,"o":"m 117 306 b 201 350 146 319 174 335 b 217 406 221 361 228 386 b 161 421 206 425 181 432 b 78 376 133 406 106 390 b 3 342 53 364 28 353 b -22 304 -12 335 -22 321 b 1 267 -22 288 -14 274 b 76 232 26 256 51 244 b 160 189 104 218 132 204 b 215 204 179 178 204 185 b 200 260 226 224 219 249 b 117 304 172 275 144 290 z "},"=":{"ha":568,"x_min":0,"x_max":0,"o":"m 494 354 l 58 354 b 17 313 35 354 17 336 b 58 271 17 289 35 271 l 494 271 b 536 313 518 271 536 289 b 494 354 536 336 518 354 z m 494 511 l 58 511 b 17 469 35 511 17 493 b 58 428 17 446 35 428 l 494 428 b 536 469 518 428 536 446 b 494 511 536 493 518 511 z "},">":{"ha":181,"x_min":0,"x_max":0,"o":"m 107 379 b 24 424 79 393 51 408 b -32 408 4 435 -21 428 b -17 353 -43 389 -36 364 b 68 308 11 338 39 322 b -15 264 40 294 13 279 b -31 208 -35 253 -42 228 b 25 193 -19 189 6 182 b 108 236 53 208 81 222 b 183 271 133 249 158 260 b 207 308 199 278 207 292 b 182 346 207 325 197 339 b 107 381 157 357 132 368 z "},"?":{"ha":461,"x_min":0,"x_max":0,"o":"m 94 289 l 94 214 b 136 172 94 190 113 172 b 178 214 160 172 178 190 l 178 286 b 210 401 179 326 190 365 b 321 554 236 451 292 513 b 374 650 342 582 361 614 b 386 728 382 675 386 701 b 382 769 386 742 385 756 b 299 897 372 821 342 867 b 172 936 261 924 217 936 b 153 936 167 936 161 936 b 44 900 114 933 76 921 b 32 842 25 888 19 861 b 90 829 44 822 71 817 b 161 854 111 843 136 851 b 175 854 167 854 171 854 b 253 831 199 854 228 849 b 303 754 267 821 294 796 b 306 729 304 746 306 738 b 297 678 306 713 303 694 b 257 603 289 653 275 628 b 139 439 221 553 172 504 b 99 288 115 393 100 340 z m 140 143 b 47 50 89 143 47 101 b 140 -43 47 -1 89 -43 b 233 50 192 -43 233 -1 b 140 143 233 101 192 143 z "},"@":{"ha":660,"x_min":0,"x_max":0,"o":"m 168 506 b 150 483 161 499 156 492 b 163 425 138 464 143 438 b 221 438 182 413 208 418 b 229 450 224 442 226 446 b 258 471 238 458 247 465 b 319 483 276 479 297 483 b 325 483 321 483 324 483 b 351 481 335 483 343 482 b 372 472 360 479 367 476 b 392 444 381 467 388 457 b 396 417 394 436 396 426 l 396 414 l 396 404 l 396 386 l 396 375 l 396 132 b 438 90 396 108 414 90 b 479 132 461 90 479 108 l 479 375 l 479 386 l 479 404 l 479 413 l 479 415 b 469 472 479 435 476 454 b 421 538 461 494 446 519 b 368 561 404 550 386 557 b 324 567 353 565 338 567 b 318 567 322 567 319 567 b 224 546 286 565 254 560 b 168 506 203 536 183 522 z m 539 174 b 517 142 529 153 519 144 b 510 83 499 128 496 101 b 568 76 524 65 550 63 b 613 136 585 90 600 110 b 650 300 639 189 647 246 b 650 324 650 308 650 317 b 586 532 650 396 632 471 b 481 621 558 569 522 600 b 350 658 439 642 394 654 b 321 660 340 660 331 660 b 182 633 274 660 226 651 b 46 528 128 611 81 575 b -15 390 15 486 -4 439 b -25 299 -22 360 -25 329 b -21 244 -25 281 -24 263 b 18 104 -15 196 -3 149 b 108 -15 39 60 69 18 b 257 -89 151 -51 203 -76 b 344 -99 286 -96 315 -99 b 418 -93 369 -99 394 -97 b 657 4 504 -79 586 -44 b 668 63 676 17 681 43 b 610 74 656 82 629 86 b 406 -10 549 31 478 1 b 346 -14 386 -12 365 -14 b 276 -6 322 -14 299 -11 b 164 50 235 4 196 24 b 94 142 135 75 111 107 b 63 257 78 178 67 217 b 60 303 61 272 60 288 b 68 376 60 328 63 353 b 114 482 76 415 92 451 b 217 561 140 517 176 544 b 324 582 250 575 286 582 b 349 582 332 582 340 582 b 449 554 383 579 418 569 b 525 490 479 539 506 517 b 572 331 563 440 572 379 b 572 311 572 325 572 318 b 543 181 569 264 561 218 z m 265 275 l 350 303 b 378 356 372 310 385 333 b 325 383 371 378 347 390 l 240 356 b 122 193 172 333 122 278 b 122 182 122 190 122 185 b 153 103 126 150 132 128 b 217 61 163 92 182 71 b 251 57 228 58 239 57 b 299 64 267 57 283 60 l 349 81 b 375 133 371 88 382 111 b 322 160 368 156 344 167 l 274 143 b 250 139 264 140 257 139 b 236 140 244 139 240 139 b 215 153 229 142 221 146 b 203 185 207 163 204 172 b 203 189 203 186 203 189 b 263 272 203 222 215 257 z "},"A":{"ha":908,"x_min":0,"x_max":0,"o":"m 557 356 l 335 356 b 293 314 311 356 293 338 b 335 272 293 290 311 272 l 557 272 b 599 314 581 272 599 290 b 557 356 599 338 581 356 z m 336 736 l 28 17 b 49 -39 18 -4 28 -29 b 104 -18 69 -49 94 -39 l 413 701 b 392 757 422 722 413 747 b 336 736 371 767 346 757 z m 867 17 l 486 906 b 431 926 476 926 451 936 b 410 871 410 917 400 892 l 790 -18 b 846 -39 800 -39 825 -49 b 867 17 867 -29 876 -4 z "},"B":{"ha":940,"x_min":0,"x_max":0,"o":"m 854 258 b 767 478 854 351 822 429 b 707 474 749 493 722 492 b 711 414 692 456 693 429 b 769 258 744 385 769 333 l 769 257 b 522 42 769 85 640 42 l 299 42 b 257 0 275 42 257 24 b 299 -42 257 -24 275 -42 l 522 -42 b 853 257 725 -42 853 68 z m 118 888 l 118 -1 b 160 -43 118 -25 136 -43 b 201 -1 183 -43 201 -25 l 201 888 b 160 929 201 911 183 929 b 118 888 136 929 118 911 z m 501 929 l 289 929 b 247 888 265 929 247 911 b 289 846 247 864 265 846 l 501 846 b 689 685 644 846 689 778 b 501 542 689 601 628 542 l 301 542 b 260 500 278 542 260 524 b 301 458 260 476 278 458 l 501 458 b 772 685 676 458 772 554 b 501 929 772 806 708 929 z "},"C":{"ha":894,"x_min":0,"x_max":0,"o":"m 500 -42 b 808 86 604 -42 721 -1 b 808 146 825 103 825 129 b 749 146 792 163 765 163 b 499 42 678 75 583 42 l 493 42 b 311 97 429 43 365 63 b 181 242 257 132 211 183 b 133 425 151 297 136 361 b 133 439 133 429 133 433 b 167 610 133 497 144 556 b 311 793 192 672 238 744 b 492 846 357 822 419 846 l 492 846 b 672 793 564 846 626 822 b 731 806 692 781 718 786 b 718 864 743 825 738 851 b 492 931 651 907 572 931 l 492 931 b 265 864 411 931 332 907 b 89 644 183 811 124 732 b 50 440 63 579 50 510 b 50 422 50 433 50 428 b 106 204 53 347 71 272 b 265 29 142 133 197 72 b 490 -39 332 -14 411 -37 b 496 -39 492 -39 494 -39 z "},"D":{"ha":851,"x_min":0,"x_max":0,"o":"m 335 931 l 286 931 b 244 889 263 931 244 913 b 286 847 244 865 263 847 l 333 847 b 386 842 351 846 368 844 b 510 803 431 835 472 822 b 607 722 547 783 581 756 b 669 593 636 685 657 640 b 688 442 682 544 688 493 l 688 439 b 668 286 688 386 682 335 b 600 151 654 236 632 189 b 460 57 558 101 506 72 b 378 42 433 49 406 43 b 360 42 372 42 367 42 b 342 42 354 42 349 42 l 276 42 b 235 0 253 42 235 24 b 276 -42 235 -24 253 -42 l 339 -42 b 360 -42 347 -42 353 -42 b 382 -42 368 -42 375 -42 b 485 -22 417 -40 451 -33 b 664 99 544 -3 611 35 b 747 265 704 147 731 206 b 768 442 763 324 768 383 l 768 444 b 747 617 768 501 763 560 b 669 776 732 674 707 729 b 546 879 636 819 593 854 b 396 928 499 904 447 919 b 332 933 375 931 353 932 z m 117 892 l 117 3 b 158 -39 117 -21 135 -39 b 200 3 182 -39 200 -21 l 200 892 b 158 933 200 915 182 933 b 117 892 135 933 117 915 z "},"E":{"ha":849,"x_min":0,"x_max":0,"o":"m 279 436 l 638 436 b 679 478 661 436 679 454 b 638 519 679 501 661 519 l 279 519 b 238 478 256 519 238 501 b 279 436 238 454 256 436 z m 276 -42 l 721 -42 b 763 0 744 -42 763 -24 b 721 42 763 24 744 42 l 276 42 b 235 0 253 42 235 24 b 276 -42 235 -24 253 -42 z m 118 889 l 118 0 b 160 -42 118 -24 136 -42 b 201 0 183 -42 201 -24 l 201 889 b 160 931 201 913 183 931 b 118 889 136 931 118 913 z m 719 931 l 279 931 b 238 889 256 931 238 913 b 279 847 238 865 256 847 l 719 847 b 761 889 743 847 761 865 b 719 931 761 913 743 931 z "},"F":{"ha":793,"x_min":0,"x_max":0,"o":"m 279 436 l 615 436 b 657 478 639 436 657 454 b 615 519 657 501 639 519 l 279 519 b 238 478 256 519 238 501 b 279 436 238 454 256 436 z m 118 889 l 118 0 b 160 -42 118 -24 136 -42 b 201 0 183 -42 201 -24 l 201 889 b 160 931 201 913 183 931 b 118 889 136 931 118 913 z m 697 931 l 279 931 b 238 889 256 931 238 913 b 279 847 238 865 256 847 l 697 847 b 739 889 721 847 739 865 b 697 931 739 913 721 931 z "},"G":{"ha":933,"x_min":0,"x_max":0,"o":"m 618 822 b 675 793 638 814 657 804 b 733 806 694 781 721 786 b 721 864 746 825 740 851 b 650 900 699 878 675 890 b 574 922 625 910 600 917 b 494 931 547 928 521 931 b 415 922 468 931 442 928 b 339 900 389 917 364 910 b 268 864 314 890 290 878 b 194 801 242 846 217 825 b 136 726 172 778 153 753 b 93 643 119 700 106 672 b 72 576 85 621 78 599 b 60 508 67 554 63 532 b 56 438 57 485 56 461 b 56 429 56 435 56 432 b 56 421 56 426 56 424 b 64 346 57 396 60 371 b 83 272 68 321 75 296 b 113 203 92 249 101 225 b 156 136 125 179 139 157 b 210 78 172 115 190 96 b 272 29 229 60 250 43 b 343 -7 294 15 318 3 b 419 -31 368 -17 393 -25 b 499 -39 446 -36 472 -39 b 601 -25 533 -39 568 -35 b 699 17 635 -15 668 -1 b 847 218 768 58 828 129 b 853 292 853 247 853 285 l 853 432 b 811 474 853 456 835 474 b 769 432 788 474 769 456 l 769 290 b 764 235 769 268 767 246 b 656 89 751 175 710 121 b 581 57 632 75 607 64 b 499 46 554 50 526 46 b 436 53 478 46 457 49 b 375 71 415 57 394 63 b 318 100 356 79 336 89 b 268 140 300 111 283 125 b 222 190 251 156 236 172 b 188 246 208 208 197 226 b 163 303 178 264 169 283 b 146 364 156 322 150 343 b 138 426 142 385 139 406 b 138 435 138 429 138 435 b 138 443 138 438 138 443 b 142 501 138 463 139 482 b 154 560 144 521 149 540 b 172 615 160 579 165 597 b 208 686 182 640 194 664 b 257 749 222 708 239 729 b 317 797 275 767 294 783 b 374 826 335 808 354 818 b 435 844 393 835 414 840 b 497 851 456 849 476 851 b 560 844 518 851 539 849 b 621 826 581 840 601 835 z m 417 390 l 679 389 b 722 431 703 389 722 407 b 681 474 722 454 704 474 l 418 475 b 375 433 394 475 375 457 b 417 390 375 410 393 390 z "},"H":{"ha":924,"x_min":0,"x_max":0,"o":"m 722 889 l 722 0 b 764 -42 722 -24 740 -42 b 806 0 788 -42 806 -24 l 806 889 b 764 931 806 913 788 931 b 722 889 740 931 722 913 z m 278 436 l 647 436 b 689 478 671 436 689 454 b 647 519 689 501 671 519 l 278 519 b 236 478 254 519 236 501 b 278 436 236 454 254 436 z m 117 889 l 117 0 b 158 -42 117 -24 135 -42 b 200 0 182 -42 200 -24 l 200 889 b 158 931 200 913 182 931 b 117 889 135 931 117 913 z "},"I":{"ha":319,"x_min":0,"x_max":0,"o":"m 118 889 l 118 0 b 160 -42 118 -24 136 -42 b 201 0 183 -42 201 -24 l 201 889 b 160 931 201 913 183 931 b 118 889 136 931 118 913 z "},"J":{"ha":785,"x_min":0,"x_max":0,"o":"m 675 282 l 675 889 b 633 931 675 913 657 931 b 592 889 610 931 592 913 l 592 282 b 633 240 592 258 610 240 b 675 282 657 240 675 258 z m 590 56 b 631 110 606 72 619 90 b 615 165 642 129 635 154 b 560 150 596 176 571 169 b 531 110 551 136 542 122 b 367 39 489 65 428 39 l 365 39 b 211 99 315 39 257 57 b 138 247 165 140 142 197 b 93 285 136 269 115 286 b 56 240 71 283 54 263 b 156 40 63 164 99 92 b 364 -40 213 -11 288 -40 l 365 -40 b 590 57 450 -40 532 -4 z "},"K":{"ha":851,"x_min":0,"x_max":0,"o":"m 325 368 l 722 -29 b 782 -29 739 -46 765 -46 b 782 31 799 -12 799 14 l 385 428 b 325 428 368 444 342 444 b 325 368 308 411 308 385 z m 294 457 l 699 861 b 699 921 715 878 715 904 b 639 921 682 938 656 938 l 235 517 b 235 457 218 500 218 474 b 294 457 251 440 278 440 z m 201 0 l 201 889 b 160 931 201 913 183 931 b 118 889 136 931 118 913 l 118 0 b 160 -42 118 -24 136 -42 b 201 0 183 -42 201 -24 z "},"L":{"ha":775,"x_min":0,"x_max":0,"o":"m 299 -42 l 717 -42 b 758 0 740 -42 758 -24 b 717 42 758 24 740 42 l 299 42 b 257 0 275 42 257 24 b 299 -42 257 -24 275 -42 z m 118 889 l 118 0 b 160 -42 118 -24 136 -42 b 201 0 183 -42 201 -24 l 201 889 b 160 931 201 913 183 931 b 118 889 136 931 118 913 z "},"M":{"ha":1242,"x_min":0,"x_max":0,"o":"m 1046 908 l 675 194 b 693 138 664 174 672 149 b 750 156 714 126 739 135 l 1121 869 b 1103 926 1132 890 1124 915 b 1046 908 1082 938 1057 929 z m 1125 0 l 1125 619 b 1083 661 1125 643 1107 661 b 1042 619 1060 661 1042 643 l 1042 0 b 1083 -42 1042 -24 1060 -42 b 1125 0 1107 -42 1125 -24 z m 242 640 l 575 -19 b 631 -39 585 -40 610 -49 b 650 17 651 -29 660 -4 l 317 676 b 261 696 307 697 282 706 b 242 640 240 686 232 661 z m 201 0 l 201 889 b 160 931 201 913 183 931 b 118 889 136 931 118 913 l 118 0 b 160 -42 118 -24 136 -42 b 201 0 183 -42 201 -24 z "},"N":{"ha":921,"x_min":0,"x_max":0,"o":"m 804 278 l 804 889 b 763 931 804 913 786 931 b 721 889 739 931 721 913 l 721 278 b 763 236 721 254 739 236 b 804 278 786 236 804 254 z m 126 865 l 728 -24 b 786 -36 740 -43 767 -49 b 799 22 806 -24 811 3 l 197 911 b 139 924 185 931 158 936 b 126 865 119 911 114 885 z m 203 0 l 203 611 b 161 653 203 635 185 653 b 119 611 138 653 119 635 l 119 0 b 161 -42 119 -24 138 -42 b 203 0 185 -42 203 -24 z "},"O":{"ha":1024,"x_min":0,"x_max":0,"o":"m 501 931 b 51 444 250 931 51 710 b 501 -42 51 179 250 -42 b 951 444 753 -42 951 179 b 501 931 951 710 753 931 z m 133 444 b 500 847 133 669 300 847 b 867 444 700 847 867 669 b 500 42 867 219 700 42 b 133 444 300 42 133 219 z "},"P":{"ha":842,"x_min":0,"x_max":0,"o":"m 119 889 l 119 0 b 161 -42 119 -24 138 -42 b 203 0 185 -42 203 -24 l 203 889 b 161 931 203 913 185 931 b 119 889 138 931 119 913 z m 503 931 l 301 931 b 260 889 278 931 260 913 b 301 847 260 865 278 847 l 503 847 b 694 644 656 847 694 735 b 519 457 694 525 625 457 l 306 457 b 264 415 282 457 264 439 b 306 374 264 392 282 374 l 519 374 b 778 644 664 374 778 471 b 503 931 778 794 693 931 z "},"Q":{"ha":1039,"x_min":0,"x_max":0,"o":"m 904 29 l 556 378 b 496 378 539 394 513 394 b 496 318 479 361 479 335 l 844 -31 b 904 -31 861 -47 888 -47 b 904 29 921 -14 921 13 z m 501 -42 b 674 -6 563 -42 621 -29 b 694 50 694 4 704 29 b 639 71 685 71 660 81 b 500 40 596 51 549 40 b 133 443 300 40 133 218 b 500 846 133 668 300 846 b 867 443 700 846 867 668 b 817 240 867 369 849 300 b 835 183 806 219 814 194 b 892 201 856 172 881 181 b 951 442 929 272 951 354 b 501 928 951 707 753 928 b 51 442 250 928 51 707 b 501 -44 51 176 250 -44 z "},"R":{"ha":903,"x_min":0,"x_max":0,"o":"m 386 319 l 756 -31 b 814 -29 772 -46 799 -46 b 813 29 829 -12 829 14 l 443 379 b 385 378 426 394 400 394 b 386 319 369 361 369 335 z m 119 889 l 119 0 b 161 -42 119 -24 138 -42 b 203 0 185 -42 203 -24 l 203 889 b 161 931 203 913 185 931 b 119 889 138 931 119 913 z m 519 931 l 300 931 b 258 889 276 931 258 913 b 300 847 258 865 276 847 l 519 847 b 696 678 653 847 696 775 b 522 513 696 592 661 513 l 308 513 b 267 471 285 513 267 494 b 308 429 267 447 285 429 l 522 429 b 779 676 674 429 779 510 b 519 929 779 844 675 929 z "},"S":{"ha":810,"x_min":0,"x_max":0,"o":"m 540 804 b 608 681 576 778 606 732 b 653 640 610 657 629 639 b 693 685 676 642 694 661 b 592 871 689 761 647 829 b 406 929 538 911 471 929 l 403 929 b 301 914 369 929 335 925 b 207 854 267 901 233 882 b 147 717 158 804 149 744 b 188 672 146 693 164 674 b 232 713 211 671 231 689 b 269 796 233 729 239 765 b 332 833 286 813 308 825 b 407 846 356 842 381 846 l 410 846 b 547 804 451 846 504 836 z m 286 585 b 257 621 275 596 265 608 b 200 633 244 640 219 646 b 188 576 181 621 175 596 b 225 526 199 558 211 542 b 390 426 272 478 332 447 b 569 354 456 403 521 389 b 597 331 579 347 589 339 b 656 328 613 314 639 313 b 658 386 672 343 674 369 b 618 419 646 399 632 410 b 419 504 557 464 479 482 b 286 583 383 517 328 540 z m 724 218 l 724 222 b 681 264 724 246 704 264 b 639 221 657 264 639 244 l 639 218 b 588 100 639 175 619 131 b 507 54 565 79 538 64 b 411 40 476 44 444 40 l 410 40 b 299 58 371 40 333 46 b 207 115 264 71 232 90 b 154 242 174 149 154 196 b 154 247 154 243 154 247 b 113 292 154 271 136 290 b 68 251 89 293 69 275 b 68 243 68 249 68 246 b 144 58 68 174 96 107 b 268 -18 179 22 222 -3 b 407 -40 313 -33 360 -40 l 408 -40 b 531 -22 449 -40 490 -35 b 642 42 571 -10 610 11 b 719 219 688 85 719 149 z "},"T":{"ha":796,"x_min":0,"x_max":0,"o":"m 354 764 l 354 0 b 396 -42 354 -24 372 -42 b 438 0 419 -42 438 -24 l 438 764 b 396 806 438 788 419 806 b 354 764 372 806 354 788 z m 722 931 l 71 931 b 29 889 47 931 29 913 b 71 847 29 865 47 847 l 722 847 b 764 889 746 847 764 865 b 722 931 764 913 746 931 z "},"U":{"ha":958,"x_min":0,"x_max":0,"o":"m 186 236 l 186 889 b 144 931 186 913 168 931 b 103 889 121 931 103 913 l 103 236 b 144 194 103 213 121 194 b 186 236 168 194 186 213 z m 293 78 b 225 126 267 90 243 107 b 167 129 210 143 183 144 b 164 71 150 114 149 88 b 257 3 192 42 224 19 b 474 -42 315 -25 388 -42 b 692 3 582 -42 653 -17 b 785 71 725 19 757 42 b 782 129 800 88 799 114 b 724 126 765 144 739 143 b 656 78 706 107 682 90 b 474 42 624 63 565 42 b 294 76 429 42 358 46 z m 765 888 l 765 235 b 807 193 765 211 783 193 b 849 235 831 193 849 211 l 849 888 b 807 929 849 911 831 929 b 765 888 783 929 765 911 z "},"V":{"ha":861,"x_min":0,"x_max":0,"o":"m 464 14 l 135 903 b 81 928 126 925 103 936 b 56 874 58 919 47 896 l 385 -15 b 439 -40 393 -37 417 -49 b 464 14 461 -32 472 -8 z m 717 903 l 483 278 b 508 224 475 256 486 232 b 563 249 531 215 554 226 l 796 874 b 771 928 804 896 793 919 b 717 903 749 936 725 925 z "},"W":{"ha":1265,"x_min":0,"x_max":0,"o":"m 964 244 l 1199 875 b 1174 929 1207 897 1196 921 b 1119 904 1151 938 1128 926 l 885 274 b 910 219 876 251 888 228 b 964 244 932 211 956 222 z m 653 339 l 790 -14 b 843 -37 799 -35 822 -46 b 867 15 864 -29 875 -6 l 729 368 b 676 392 721 389 697 400 b 653 339 656 383 644 360 z m 547 211 l 794 875 b 769 929 803 897 792 921 b 715 904 747 938 724 926 l 468 240 b 493 186 460 218 471 194 b 547 211 515 178 539 189 z m 56 875 l 385 -14 b 439 -39 393 -36 417 -47 b 464 15 461 -31 472 -7 l 135 904 b 81 929 126 926 103 938 b 56 875 58 921 47 897 z "},"X":{"ha":1083,"x_min":0,"x_max":0,"o":"m 1008 28 l 196 917 b 138 919 181 933 154 935 b 135 861 121 904 119 878 l 947 -28 b 1006 -31 963 -44 989 -46 b 1008 28 1022 -15 1024 11 z m 693 574 l 957 860 b 954 918 972 876 971 903 b 896 915 938 933 911 932 l 632 629 b 635 571 617 613 618 586 b 693 574 651 556 678 557 z m 139 -29 l 471 329 b 468 388 486 346 485 372 b 410 385 451 403 425 401 l 78 26 b 81 -32 63 10 64 -17 b 139 -29 97 -47 124 -46 z "},"Y":{"ha":915,"x_min":0,"x_max":0,"o":"m 496 0 l 496 333 b 454 375 496 357 478 375 b 413 333 431 375 413 357 l 413 0 b 454 -42 413 -24 431 -42 b 496 0 478 -42 496 -24 z m 485 503 l 106 917 b 47 919 90 933 64 935 b 44 861 31 904 29 878 l 424 447 b 482 444 439 431 465 429 b 485 503 499 460 500 486 z m 804 917 l 564 656 b 567 597 549 639 550 613 b 625 600 583 582 610 583 l 865 861 b 863 919 881 878 879 904 b 804 917 846 935 819 933 z "},"Z":{"ha":976,"x_min":0,"x_max":0,"o":"m 829 932 l 143 932 b 101 890 119 932 101 914 b 143 849 101 867 119 849 l 829 849 b 871 890 853 849 871 867 b 829 932 871 914 853 932 z m 151 -26 l 765 732 b 758 790 779 750 776 776 b 700 783 740 804 714 801 l 86 25 b 93 -33 72 7 75 -19 b 151 -26 111 -47 138 -44 z m 879 42 l 325 42 b 283 0 301 42 283 24 b 325 -42 283 -24 301 -42 l 879 -42 b 921 0 903 -42 921 -24 b 879 42 921 24 903 42 z "},"[":{"ha":236,"x_min":0,"x_max":0,"o":"m 131 853 l 185 853 b 226 894 208 853 226 871 b 185 936 226 918 208 936 l 89 936 b 47 894 65 936 47 918 l 49 -111 b 90 -153 49 -135 67 -153 l 185 -153 b 226 -111 208 -153 226 -135 b 185 -69 226 -87 208 -69 l 132 -69 z "},"\\":{"ha":336,"x_min":0,"x_max":0,"o":"m 349 13 l 68 907 b 15 935 61 929 38 942 b -12 882 -7 928 -19 904 l 268 -12 b 321 -40 275 -35 299 -47 b 349 13 343 -33 356 -10 z "},"]":{"ha":236,"x_min":0,"x_max":0,"o":"m 90 -69 l 36 -69 b -6 -111 13 -69 -6 -87 b 36 -153 -6 -135 13 -153 l 132 -153 b 174 -111 156 -153 174 -135 l 172 894 b 131 936 172 918 154 936 l 36 936 b -6 894 13 936 -6 918 b 36 853 -6 871 13 853 l 89 853 z "},"^":{"ha":226,"x_min":0,"x_max":0,"o":"m 79 861 l -22 729 b -15 671 -36 711 -33 685 b 43 678 3 657 29 660 l 111 767 l 178 678 b 236 669 192 660 218 656 b 244 728 254 683 258 710 l 144 860 b 111 876 136 871 125 876 b 78 860 97 876 86 871 z "},"_":{"ha":532,"x_min":0,"x_max":0,"o":"m 532 31 l 0 31 b -42 -11 -24 31 -42 13 b 0 -53 -42 -35 -24 -53 l 532 -53 b 574 -11 556 -53 574 -35 b 532 31 574 13 556 31 z "},"`":{"ha":142,"x_min":0,"x_max":0,"o":"m 149 736 b 53 854 114 765 78 806 b -3 874 43 875 18 883 b -22 818 -24 864 -32 839 b 93 672 8 756 53 707 b 153 678 111 657 138 660 b 147 738 168 696 165 722 z "},"a":{"ha":908,"x_min":0,"x_max":0,"o":"m 557 356 l 335 356 b 293 314 311 356 293 338 b 335 272 293 290 311 272 l 557 272 b 599 314 581 272 599 290 b 557 356 599 338 581 356 z m 336 736 l 28 17 b 49 -39 18 -4 28 -29 b 104 -18 69 -49 94 -39 l 413 701 b 392 757 422 722 413 747 b 336 736 371 767 346 757 z m 867 17 l 486 906 b 431 926 476 926 451 936 b 410 871 410 917 400 892 l 790 -18 b 846 -39 800 -39 825 -49 b 867 17 867 -29 876 -4 z "},"b":{"ha":940,"x_min":0,"x_max":0,"o":"m 854 258 b 767 478 854 351 822 429 b 707 474 749 493 722 492 b 711 414 692 456 693 429 b 769 258 744 385 769 333 l 769 257 b 522 42 769 85 640 42 l 299 42 b 257 0 275 42 257 24 b 299 -42 257 -24 275 -42 l 522 -42 b 853 257 725 -42 853 68 z m 118 888 l 118 -1 b 160 -43 118 -25 136 -43 b 201 -1 183 -43 201 -25 l 201 888 b 160 929 201 911 183 929 b 118 888 136 929 118 911 z m 501 929 l 289 929 b 247 888 265 929 247 911 b 289 846 247 864 265 846 l 501 846 b 689 685 644 846 689 778 b 501 542 689 601 628 542 l 301 542 b 260 500 278 542 260 524 b 301 458 260 476 278 458 l 501 458 b 772 685 676 458 772 554 b 501 929 772 806 708 929 z "},"c":{"ha":894,"x_min":0,"x_max":0,"o":"m 500 -42 b 808 86 604 -42 721 -1 b 808 146 825 103 825 129 b 749 146 792 163 765 163 b 499 42 678 75 583 42 l 493 42 b 311 97 429 43 365 63 b 181 242 257 132 211 183 b 133 425 151 297 136 361 b 133 439 133 429 133 433 b 167 610 133 497 144 556 b 311 793 192 672 238 744 b 492 846 357 822 419 846 l 492 846 b 672 793 564 846 626 822 b 731 806 692 781 718 786 b 718 864 743 825 738 851 b 492 931 651 907 572 931 l 492 931 b 265 864 411 931 332 907 b 89 644 183 811 124 732 b 50 440 63 579 50 510 b 50 422 50 433 50 428 b 106 204 53 347 71 272 b 265 29 142 133 197 72 b 490 -39 332 -14 411 -37 b 496 -39 492 -39 494 -39 z "},"d":{"ha":851,"x_min":0,"x_max":0,"o":"m 335 931 l 286 931 b 244 889 263 931 244 913 b 286 847 244 865 263 847 l 333 847 b 386 842 351 846 368 844 b 510 803 431 835 472 822 b 607 722 547 783 581 756 b 669 593 636 685 657 640 b 688 442 682 544 688 493 l 688 439 b 668 286 688 386 682 335 b 600 151 654 236 632 189 b 460 57 558 101 506 72 b 378 42 433 49 406 43 b 360 42 372 42 367 42 b 342 42 354 42 349 42 l 276 42 b 235 0 253 42 235 24 b 276 -42 235 -24 253 -42 l 339 -42 b 360 -42 347 -42 353 -42 b 382 -42 368 -42 375 -42 b 485 -22 417 -40 451 -33 b 664 99 544 -3 611 35 b 747 265 704 147 731 206 b 768 442 763 324 768 383 l 768 444 b 747 617 768 501 763 560 b 669 776 732 674 707 729 b 546 879 636 819 593 854 b 396 928 499 904 447 919 b 332 933 375 931 353 932 z m 117 892 l 117 3 b 158 -39 117 -21 135 -39 b 200 3 182 -39 200 -21 l 200 892 b 158 933 200 915 182 933 b 117 892 135 933 117 915 z "},"e":{"ha":849,"x_min":0,"x_max":0,"o":"m 279 436 l 638 436 b 679 478 661 436 679 454 b 638 519 679 501 661 519 l 279 519 b 238 478 256 519 238 501 b 279 436 238 454 256 436 z m 276 -42 l 721 -42 b 763 0 744 -42 763 -24 b 721 42 763 24 744 42 l 276 42 b 235 0 253 42 235 24 b 276 -42 235 -24 253 -42 z m 118 889 l 118 0 b 160 -42 118 -24 136 -42 b 201 0 183 -42 201 -24 l 201 889 b 160 931 201 913 183 931 b 118 889 136 931 118 913 z m 719 931 l 279 931 b 238 889 256 931 238 913 b 279 847 238 865 256 847 l 719 847 b 761 889 743 847 761 865 b 719 931 761 913 743 931 z "},"f":{"ha":793,"x_min":0,"x_max":0,"o":"m 279 436 l 615 436 b 657 478 639 436 657 454 b 615 519 657 501 639 519 l 279 519 b 238 478 256 519 238 501 b 279 436 238 454 256 436 z m 118 889 l 118 0 b 160 -42 118 -24 136 -42 b 201 0 183 -42 201 -24 l 201 889 b 160 931 201 913 183 931 b 118 889 136 931 118 913 z m 697 931 l 279 931 b 238 889 256 931 238 913 b 279 847 238 865 256 847 l 697 847 b 739 889 721 847 739 865 b 697 931 739 913 721 931 z "},"g":{"ha":933,"x_min":0,"x_max":0,"o":"m 618 822 b 675 793 638 814 657 804 b 733 806 694 781 721 786 b 721 864 746 825 740 851 b 650 900 699 878 675 890 b 574 922 625 910 600 917 b 494 931 547 928 521 931 b 415 922 468 931 442 928 b 339 900 389 917 364 910 b 268 864 314 890 290 878 b 194 801 242 846 217 825 b 136 726 172 778 153 753 b 93 643 119 700 106 672 b 72 576 85 621 78 599 b 60 508 67 554 63 532 b 56 438 57 485 56 461 b 56 429 56 435 56 432 b 56 421 56 426 56 424 b 64 346 57 396 60 371 b 83 272 68 321 75 296 b 113 203 92 249 101 225 b 156 136 125 179 139 157 b 210 78 172 115 190 96 b 272 29 229 60 250 43 b 343 -7 294 15 318 3 b 419 -31 368 -17 393 -25 b 499 -39 446 -36 472 -39 b 601 -25 533 -39 568 -35 b 699 17 635 -15 668 -1 b 847 218 768 58 828 129 b 853 292 853 247 853 285 l 853 432 b 811 474 853 456 835 474 b 769 432 788 474 769 456 l 769 290 b 764 235 769 268 767 246 b 656 89 751 175 710 121 b 581 57 632 75 607 64 b 499 46 554 50 526 46 b 436 53 478 46 457 49 b 375 71 415 57 394 63 b 318 100 356 79 336 89 b 268 140 300 111 283 125 b 222 190 251 156 236 172 b 188 246 208 208 197 226 b 163 303 178 264 169 283 b 146 364 156 322 150 343 b 138 426 142 385 139 406 b 138 435 138 429 138 435 b 138 443 138 438 138 443 b 142 501 138 463 139 482 b 154 560 144 521 149 540 b 172 615 160 579 165 597 b 208 686 182 640 194 664 b 257 749 222 708 239 729 b 317 797 275 767 294 783 b 374 826 335 808 354 818 b 435 844 393 835 414 840 b 497 851 456 849 476 851 b 560 844 518 851 539 849 b 621 826 581 840 601 835 z m 417 390 l 679 389 b 722 431 703 389 722 407 b 681 474 722 454 704 474 l 418 475 b 375 433 394 475 375 457 b 417 390 375 410 393 390 z "},"h":{"ha":924,"x_min":0,"x_max":0,"o":"m 722 889 l 722 0 b 764 -42 722 -24 740 -42 b 806 0 788 -42 806 -24 l 806 889 b 764 931 806 913 788 931 b 722 889 740 931 722 913 z m 278 436 l 647 436 b 689 478 671 436 689 454 b 647 519 689 501 671 519 l 278 519 b 236 478 254 519 236 501 b 278 436 236 454 254 436 z m 117 889 l 117 0 b 158 -42 117 -24 135 -42 b 200 0 182 -42 200 -24 l 200 889 b 158 931 200 913 182 931 b 117 889 135 931 117 913 z "},"i":{"ha":319,"x_min":0,"x_max":0,"o":"m 118 889 l 118 0 b 160 -42 118 -24 136 -42 b 201 0 183 -42 201 -24 l 201 889 b 160 931 201 913 183 931 b 118 889 136 931 118 913 z "},"j":{"ha":792,"x_min":0,"x_max":0,"o":"m 682 282 l 682 889 b 640 931 682 913 664 931 b 599 889 617 931 599 913 l 599 282 b 640 240 599 258 617 240 b 682 282 664 240 682 258 z m 597 56 b 638 110 613 72 626 90 b 622 165 649 129 642 154 b 567 150 603 176 578 169 b 538 110 558 136 549 122 b 374 39 496 65 435 39 l 372 39 b 218 99 322 39 264 57 b 144 247 172 140 149 197 b 100 285 143 269 122 286 b 63 240 78 283 61 263 b 163 40 69 164 106 92 b 371 -40 219 -11 294 -40 l 372 -40 b 597 57 457 -40 539 -4 z "},"k":{"ha":851,"x_min":0,"x_max":0,"o":"m 325 368 l 722 -29 b 782 -29 739 -46 765 -46 b 782 31 799 -12 799 14 l 385 428 b 325 428 368 444 342 444 b 325 368 308 411 308 385 z m 294 457 l 699 861 b 699 921 715 878 715 904 b 639 921 682 938 656 938 l 235 517 b 235 457 218 500 218 474 b 294 457 251 440 278 440 z m 201 0 l 201 889 b 160 931 201 913 183 931 b 118 889 136 931 118 913 l 118 0 b 160 -42 118 -24 136 -42 b 201 0 183 -42 201 -24 z "},"l":{"ha":775,"x_min":0,"x_max":0,"o":"m 299 -42 l 717 -42 b 758 0 740 -42 758 -24 b 717 42 758 24 740 42 l 299 42 b 257 0 275 42 257 24 b 299 -42 257 -24 275 -42 z m 118 889 l 118 0 b 160 -42 118 -24 136 -42 b 201 0 183 -42 201 -24 l 201 889 b 160 931 201 913 183 931 b 118 889 136 931 118 913 z "},"m":{"ha":1242,"x_min":0,"x_max":0,"o":"m 1046 908 l 675 194 b 693 138 664 174 672 149 b 750 156 714 126 739 135 l 1121 869 b 1103 926 1132 890 1124 915 b 1046 908 1082 938 1057 929 z m 1125 0 l 1125 619 b 1083 661 1125 643 1107 661 b 1042 619 1060 661 1042 643 l 1042 0 b 1083 -42 1042 -24 1060 -42 b 1125 0 1107 -42 1125 -24 z m 242 640 l 575 -19 b 631 -39 585 -40 610 -49 b 650 17 651 -29 660 -4 l 317 676 b 261 696 307 697 282 706 b 242 640 240 686 232 661 z m 201 0 l 201 889 b 160 931 201 913 183 931 b 118 889 136 931 118 913 l 118 0 b 160 -42 118 -24 136 -42 b 201 0 183 -42 201 -24 z "},"n":{"ha":921,"x_min":0,"x_max":0,"o":"m 804 278 l 804 889 b 763 931 804 913 786 931 b 721 889 739 931 721 913 l 721 278 b 763 236 721 254 739 236 b 804 278 786 236 804 254 z m 126 865 l 728 -24 b 786 -36 740 -43 767 -49 b 799 22 806 -24 811 3 l 197 911 b 139 924 185 931 158 936 b 126 865 119 911 114 885 z m 203 0 l 203 611 b 161 653 203 635 185 653 b 119 611 138 653 119 635 l 119 0 b 161 -42 119 -24 138 -42 b 203 0 185 -42 203 -24 z "},"o":{"ha":1024,"x_min":0,"x_max":0,"o":"m 501 931 b 51 444 250 931 51 710 b 501 -42 51 179 250 -42 b 951 444 753 -42 951 179 b 501 931 951 710 753 931 z m 133 444 b 500 847 133 669 300 847 b 867 444 700 847 867 669 b 500 42 867 219 700 42 b 133 444 300 42 133 219 z "},"p":{"ha":842,"x_min":0,"x_max":0,"o":"m 119 889 l 119 0 b 161 -42 119 -24 138 -42 b 203 0 185 -42 203 -24 l 203 889 b 161 931 203 913 185 931 b 119 889 138 931 119 913 z m 503 931 l 301 931 b 260 889 278 931 260 913 b 301 847 260 865 278 847 l 503 847 b 694 644 656 847 694 735 b 519 457 694 525 625 457 l 306 457 b 264 415 282 457 264 439 b 306 374 264 392 282 374 l 519 374 b 778 644 664 374 778 471 b 503 931 778 794 693 931 z "},"q":{"ha":1039,"x_min":0,"x_max":0,"o":"m 904 29 l 556 378 b 496 378 539 394 513 394 b 496 318 479 361 479 335 l 844 -31 b 904 -31 861 -47 888 -47 b 904 29 921 -14 921 13 z m 501 -42 b 674 -6 563 -42 621 -29 b 694 50 694 4 704 29 b 639 71 685 71 660 81 b 500 40 596 51 549 40 b 133 443 300 40 133 218 b 500 846 133 668 300 846 b 867 443 700 846 867 668 b 817 240 867 369 849 300 b 835 183 806 219 814 194 b 892 201 856 172 881 181 b 951 442 929 272 951 354 b 501 928 951 707 753 928 b 51 442 250 928 51 707 b 501 -44 51 176 250 -44 z "},"r":{"ha":903,"x_min":0,"x_max":0,"o":"m 375 331 l 756 -31 b 814 -29 772 -46 799 -46 b 813 29 829 -12 829 14 l 432 390 b 374 389 415 406 389 406 b 375 331 358 372 358 346 z m 119 889 l 119 0 b 161 -42 119 -24 138 -42 b 203 0 185 -42 203 -24 l 203 889 b 161 931 203 913 185 931 b 119 889 138 931 119 913 z m 519 931 l 300 931 b 258 889 276 931 258 913 b 300 847 258 865 276 847 l 519 847 b 696 678 653 847 696 775 b 522 513 696 592 661 513 l 308 513 b 267 471 285 513 267 494 b 308 429 267 447 285 429 l 522 429 b 779 676 674 429 779 510 b 519 929 779 844 675 929 z "},"s":{"ha":810,"x_min":0,"x_max":0,"o":"m 540 804 b 608 681 576 778 606 732 b 653 640 610 657 629 639 b 693 685 676 642 694 661 b 592 871 689 761 647 829 b 406 929 538 911 471 929 l 403 929 b 301 914 369 929 335 925 b 207 854 267 901 233 882 b 147 717 158 804 149 744 b 188 672 146 693 164 674 b 232 713 211 671 231 689 b 269 796 233 729 239 765 b 332 833 286 813 308 825 b 407 846 356 842 381 846 l 410 846 b 547 804 451 846 504 836 z m 286 585 b 257 621 275 596 265 608 b 200 633 244 640 219 646 b 188 576 181 621 175 596 b 225 526 199 558 211 542 b 390 426 272 478 332 447 b 569 354 456 403 521 389 b 597 331 579 347 589 339 b 656 328 613 314 639 313 b 658 386 672 343 674 369 b 618 419 646 399 632 410 b 419 504 557 464 479 482 b 286 583 383 517 328 540 z m 724 218 l 724 222 b 681 264 724 246 704 264 b 639 221 657 264 639 244 l 639 218 b 588 100 639 175 619 131 b 507 54 565 79 538 64 b 411 40 476 44 444 40 l 410 40 b 299 58 371 40 333 46 b 207 115 264 71 232 90 b 154 242 174 149 154 196 b 154 247 154 243 154 247 b 113 292 154 271 136 290 b 68 251 89 293 69 275 b 68 243 68 249 68 246 b 144 58 68 174 96 107 b 268 -18 179 22 222 -3 b 407 -40 313 -33 360 -40 l 408 -40 b 531 -22 449 -40 490 -35 b 642 42 571 -10 610 11 b 719 219 688 85 719 149 z "},"t":{"ha":796,"x_min":0,"x_max":0,"o":"m 354 764 l 354 0 b 396 -42 354 -24 372 -42 b 438 0 419 -42 438 -24 l 438 764 b 396 806 438 788 419 806 b 354 764 372 806 354 788 z m 722 931 l 71 931 b 29 889 47 931 29 913 b 71 847 29 865 47 847 l 722 847 b 764 889 746 847 764 865 b 722 931 764 913 746 931 z "},"u":{"ha":958,"x_min":0,"x_max":0,"o":"m 186 236 l 186 889 b 144 931 186 913 168 931 b 103 889 121 931 103 913 l 103 236 b 144 194 103 213 121 194 b 186 236 168 194 186 213 z m 293 78 b 225 126 267 90 243 107 b 167 129 210 143 183 144 b 164 71 150 114 149 88 b 257 3 192 42 224 19 b 474 -42 315 -25 388 -42 b 692 3 582 -42 653 -17 b 785 71 725 19 757 42 b 782 129 800 88 799 114 b 724 126 765 144 739 143 b 656 78 706 107 682 90 b 474 42 624 63 565 42 b 294 76 429 42 358 46 z m 765 888 l 765 235 b 807 193 765 211 783 193 b 849 235 831 193 849 211 l 849 888 b 807 929 849 911 831 929 b 765 888 783 929 765 911 z "},"v":{"ha":861,"x_min":0,"x_max":0,"o":"m 464 14 l 135 903 b 81 928 126 925 103 936 b 56 874 58 919 47 896 l 385 -15 b 439 -40 393 -37 417 -49 b 464 14 461 -32 472 -8 z m 717 903 l 483 278 b 508 224 475 256 486 232 b 563 249 531 215 554 226 l 796 874 b 771 928 804 896 793 919 b 717 903 749 936 725 925 z "},"w":{"ha":1265,"x_min":0,"x_max":0,"o":"m 964 244 l 1199 875 b 1174 929 1207 897 1196 921 b 1119 904 1151 938 1128 926 l 885 274 b 910 219 876 251 888 228 b 964 244 932 211 956 222 z m 653 339 l 790 -14 b 843 -37 799 -35 822 -46 b 867 15 864 -29 875 -6 l 729 368 b 676 392 721 389 697 400 b 653 339 656 383 644 360 z m 547 211 l 794 875 b 769 929 803 897 792 921 b 715 904 747 938 724 926 l 468 240 b 493 186 460 218 471 194 b 547 211 515 178 539 189 z m 56 875 l 385 -14 b 439 -39 393 -36 417 -47 b 464 15 461 -31 472 -7 l 135 904 b 81 929 126 926 103 938 b 56 875 58 921 47 897 z "},"x":{"ha":1083,"x_min":0,"x_max":0,"o":"m 1008 28 l 196 917 b 138 919 181 933 154 935 b 135 861 121 904 119 878 l 947 -28 b 1006 -31 963 -44 989 -46 b 1008 28 1022 -15 1024 11 z m 693 574 l 957 860 b 954 918 972 876 971 903 b 896 915 938 933 911 932 l 632 629 b 635 571 617 613 618 586 b 693 574 651 556 678 557 z m 139 -29 l 471 329 b 468 388 486 346 485 372 b 410 385 451 403 425 401 l 78 26 b 81 -32 63 10 64 -17 b 139 -29 97 -47 124 -46 z "},"y":{"ha":915,"x_min":0,"x_max":0,"o":"m 496 0 l 496 333 b 454 375 496 357 478 375 b 413 333 431 375 413 357 l 413 0 b 454 -42 413 -24 431 -42 b 496 0 478 -42 496 -24 z m 485 503 l 106 917 b 47 919 90 933 64 935 b 44 861 31 904 29 878 l 424 447 b 482 444 439 431 465 429 b 485 503 499 460 500 486 z m 804 917 l 564 656 b 567 597 549 639 550 613 b 625 600 583 582 610 583 l 865 861 b 863 919 881 878 879 904 b 804 917 846 935 819 933 z "},"z":{"ha":976,"x_min":0,"x_max":0,"o":"m 829 932 l 143 932 b 101 890 119 932 101 914 b 143 849 101 867 119 849 l 829 849 b 871 890 853 849 871 867 b 829 932 871 914 853 932 z m 151 -26 l 765 732 b 758 790 779 750 776 776 b 700 783 740 804 714 801 l 86 25 b 93 -33 72 7 75 -19 b 151 -26 111 -47 138 -44 z m 879 42 l 325 42 b 283 0 301 42 283 24 b 325 -42 283 -24 301 -42 l 879 -42 b 921 0 903 -42 921 -24 b 879 42 921 24 903 42 z "},"{":{"ha":236,"x_min":0,"x_max":0,"o":"m 131 865 b 169 856 140 864 163 858 b 224 878 190 846 215 857 b 200 932 232 899 222 924 b 128 946 179 939 157 946 b 47 869 79 946 47 915 l 47 431 b 19 429 43 429 38 429 b -22 388 -4 429 -22 411 b 19 346 -22 364 -4 346 b 46 343 32 346 40 344 l 46 -89 b 178 -157 46 -133 154 -153 b 178 -157 178 -157 178 -157 b 224 -121 200 -160 221 -143 b 188 -75 226 -99 210 -78 b 185 -72 188 -74 186 -72 b 182 -75 183 -72 183 -75 b 129 -90 135 -76 129 -90 l 129 354 b 121 385 128 358 128 371 b 129 415 126 393 129 403 z "},"|":{"ha":167,"x_min":0,"x_max":0,"o":"m 125 -58 l 125 894 b 83 936 125 918 107 936 b 42 894 60 936 42 918 l 42 -58 b 83 -100 42 -82 60 -100 b 125 -58 107 -100 125 -82 z "},"}":{"ha":236,"x_min":0,"x_max":0,"o":"m 188 346 b 214 349 193 347 201 349 b 256 390 238 349 256 367 b 214 432 256 414 238 432 b 186 433 196 432 190 432 l 186 872 b 106 949 186 918 154 949 b 33 935 76 949 54 942 b 10 881 11 926 1 901 b 64 858 18 860 43 849 b 103 868 71 861 93 867 l 103 425 b 111 394 103 413 106 403 b 103 364 104 381 104 368 l 103 -79 b 47 -65 82 -78 64 -65 l 46 -65 b 10 -111 24 -68 7 -89 b 54 -149 13 -133 32 -150 b 108 -162 60 -149 49 -162 b 188 -81 147 -162 188 -139 z "},"~":{"ha":367,"x_min":0,"x_max":0,"o":"m 378 794 b 375 815 378 799 376 811 b 326 849 371 838 349 853 b 293 800 304 844 289 822 b 294 796 294 796 294 800 b 293 789 294 792 294 792 b 293 786 293 789 297 797 b 283 775 292 782 289 778 b 267 769 279 772 274 769 l 265 769 b 246 774 260 769 253 771 b 189 817 226 782 222 789 b 144 846 168 833 154 842 b 104 857 125 854 121 856 b 93 857 101 857 93 857 b 85 857 92 857 86 857 b 7 814 36 853 11 821 b -11 754 -6 796 -11 775 b -6 722 -11 744 -10 735 b 47 696 1 700 25 689 b 74 749 69 703 81 726 b 74 753 74 750 74 751 b 76 763 74 754 74 758 b 93 769 81 768 89 769 b 96 769 94 769 96 769 b 100 769 97 769 100 769 b 114 765 106 769 108 768 b 140 749 122 763 131 757 b 219 693 156 736 185 707 b 271 682 235 686 253 682 b 276 682 272 682 275 682 b 335 701 300 683 319 692 b 376 750 350 711 367 728 b 381 761 379 756 381 758 b 386 793 385 774 385 774 z "},"":{"ha":386,"x_min":0,"x_max":0,"o":""},"":{"ha":251,"x_min":0,"x_max":0,"o":"m 181 481 l 64 481 b 22 439 40 481 22 463 b 64 397 22 415 40 397 l 181 397 b 222 439 204 397 222 415 b 181 481 222 463 204 481 z "},"":{"ha":181,"x_min":0,"x_max":0,"o":"m 49 -61 b 90 -103 49 -85 67 -103 b 132 -61 114 -103 132 -85 l 132 619 b 90 661 132 643 114 661 b 49 619 67 661 49 643 z m 90 689 b 183 782 142 689 183 731 b 90 875 183 833 142 875 b -3 782 39 875 -3 833 b 90 689 -3 731 39 689 z "},"":{"ha":831,"x_min":0,"x_max":0,"o":"m 461 -37 b 744 81 557 -37 664 0 b 744 135 760 96 760 119 b 690 135 729 150 706 150 b 460 39 625 69 538 39 l 454 39 b 288 90 396 40 338 58 b 168 222 238 122 196 168 b 126 390 142 274 128 332 b 126 404 126 394 126 399 b 156 563 126 458 136 513 b 288 729 178 619 219 685 b 454 779 329 757 388 779 l 454 779 b 621 729 521 779 579 757 b 674 742 639 718 663 724 b 661 794 685 760 679 783 b 454 857 600 835 528 857 l 454 857 b 247 794 381 857 308 835 b 85 592 172 746 117 672 b 49 404 61 532 49 468 b 49 386 49 397 49 392 b 100 185 51 317 68 247 b 246 24 133 119 183 63 b 451 -37 307 -15 379 -36 b 457 -37 453 -37 456 -37 z m 485 153 l 485 647 b 443 689 485 671 467 689 b 401 647 419 689 401 671 l 401 153 b 443 111 401 129 419 111 b 485 153 467 111 485 129 z "},"":{"ha":632,"x_min":0,"x_max":0,"o":"m 163 97 l 160 90 b 124 43 150 69 138 53 b 103 35 117 39 110 36 b 97 35 101 35 97 35 b 86 36 92 35 90 35 b 82 38 85 36 82 38 b 67 49 75 40 69 44 b 61 65 64 53 61 58 l 61 67 b 67 86 61 72 63 79 b 85 101 71 92 76 97 b 114 107 93 106 103 107 b 143 103 124 107 133 106 b 160 96 149 101 154 99 z m 475 667 b 467 618 475 650 472 633 b 492 564 458 596 469 572 b 546 589 514 556 538 567 b 558 667 554 614 558 640 b 556 700 558 678 557 689 b 511 804 550 738 535 774 b 422 872 488 835 457 858 b 339 889 396 883 368 889 b 311 888 331 889 322 889 b 189 829 265 882 222 861 b 125 713 153 794 133 750 b 119 654 121 693 119 674 b 131 564 119 624 124 593 b 164 436 140 518 154 476 l 165 431 l 57 431 b 15 389 33 431 15 413 b 57 347 15 365 33 347 l 179 347 b 183 264 182 319 183 292 l 183 260 b 179 178 183 232 182 204 b 167 182 175 179 171 181 b 114 190 150 188 132 190 b 50 176 93 190 71 186 b 0 135 28 165 11 150 b -22 71 -11 119 -21 97 b -22 65 -22 69 -22 67 b -4 4 -22 47 -18 25 b 49 -39 8 -15 26 -31 b 60 -43 53 -40 57 -42 b 93 -49 72 -47 72 -47 b 111 -47 97 -49 107 -47 b 168 -26 132 -44 151 -37 b 233 53 200 -6 221 25 b 301 10 254 39 276 24 b 411 -28 335 -8 371 -22 b 449 -31 424 -29 436 -31 b 553 -8 483 -31 519 -24 b 656 90 597 13 633 47 b 638 147 667 111 658 136 b 581 129 617 158 592 150 b 515 68 567 103 543 81 b 447 53 494 58 471 53 b 422 54 439 53 431 53 b 340 82 394 58 367 68 b 258 135 314 96 288 115 b 268 257 267 176 268 218 l 268 263 b 264 346 268 290 267 318 l 446 346 b 488 388 469 346 488 364 b 446 429 488 411 469 429 l 250 429 b 246 454 249 438 247 446 b 211 581 235 499 221 540 b 201 651 206 606 201 629 b 206 692 201 665 203 679 b 247 765 211 715 224 743 b 321 801 267 785 293 797 b 339 803 326 803 332 803 b 392 792 357 803 375 799 b 449 750 414 783 433 768 b 478 686 464 732 474 710 b 479 665 479 679 479 672 z "},"":{"ha":672,"x_min":0,"x_max":0,"o":"m 443 563 b 486 457 472 533 486 496 b 449 360 486 422 474 388 b 440 353 446 358 443 356 b 433 344 438 350 435 347 b 336 307 406 319 371 307 b 231 350 297 307 260 321 b 188 456 201 379 188 417 b 226 557 188 492 200 528 b 231 561 228 558 229 560 b 235 565 232 563 233 564 b 336 604 264 592 300 604 b 442 561 375 604 413 590 z m 144 322 l 69 247 b 69 188 53 231 53 204 b 129 188 86 171 113 171 l 204 263 b 338 221 244 235 292 221 b 471 263 383 221 431 235 l 546 188 b 606 188 563 171 589 171 b 606 247 622 204 622 231 l 531 322 b 572 456 558 363 572 410 b 531 589 572 501 558 549 l 606 664 b 606 724 622 681 622 707 b 546 724 589 740 563 740 l 471 649 b 338 690 431 676 383 690 b 204 649 292 690 244 676 l 129 724 b 69 724 113 740 86 740 b 69 664 53 707 53 681 l 144 589 b 103 456 117 549 103 501 b 144 322 103 410 117 363 z "},"":{"ha":958,"x_min":0,"x_max":0,"o":"m 703 375 l 267 375 b 225 338 243 375 225 358 b 267 300 225 317 243 300 l 435 300 l 435 -1 b 476 -43 435 -25 453 -43 b 518 -1 500 -43 518 -25 l 518 300 l 703 300 b 744 338 726 300 744 317 b 703 375 744 358 726 375 z m 703 515 l 496 515 l 507 503 b 494 463 522 486 511 478 b 435 461 478 447 450 444 l 383 517 l 267 517 b 225 479 243 517 225 500 b 267 442 225 458 243 442 l 703 442 b 744 479 726 442 744 458 b 703 517 744 500 726 517 z m 828 918 l 588 657 b 590 599 572 640 574 614 b 649 601 607 583 633 585 l 889 863 b 886 921 904 879 903 906 b 828 918 869 936 843 935 z m 385 517 l 68 863 b 71 921 53 879 54 906 b 129 918 88 936 114 935 l 496 517 z "},"":{"ha":167,"x_min":0,"x_max":0,"o":"m 125 524 l 125 850 b 83 892 125 874 107 892 b 42 850 60 892 42 874 l 42 524 b 83 482 42 500 60 482 b 125 524 107 482 125 500 z m 125 0 l 125 326 b 83 368 125 350 107 368 b 42 326 60 368 42 350 l 42 0 b 83 -42 42 -24 60 -42 b 125 0 107 -42 125 -24 z "},"":{"ha":853,"x_min":0,"x_max":0,"o":"m 690 169 b 658 240 683 194 672 218 b 571 324 635 275 604 303 b 369 397 508 363 431 378 b 246 463 297 421 265 444 b 206 515 229 478 215 496 b 189 579 196 535 190 557 b 189 588 189 582 189 588 b 197 640 189 606 192 624 b 214 593 201 624 207 608 b 274 517 229 564 250 538 b 429 435 321 474 376 451 b 613 371 486 417 561 403 b 675 313 638 356 660 336 b 701 233 690 289 700 261 b 701 224 701 229 701 228 b 693 171 701 206 699 188 z m 179 -12 b 131 24 163 -1 146 11 b 71 18 113 39 86 36 b 76 -42 56 0 58 -26 b 133 -83 94 -57 114 -71 b 326 -157 192 -121 257 -147 b 385 -161 346 -160 365 -161 b 508 -140 426 -161 468 -154 b 647 -46 554 -125 607 -96 b 686 24 664 -25 676 -1 b 731 71 704 38 718 54 b 783 224 764 114 783 168 b 783 239 783 228 783 235 b 742 358 781 282 765 324 b 654 442 718 393 688 421 b 453 515 592 481 514 496 b 329 581 381 539 349 563 b 289 633 313 596 299 614 b 272 697 279 653 274 675 b 272 706 272 700 272 706 b 276 739 272 717 274 728 b 278 747 278 742 278 744 b 290 779 281 758 285 769 b 344 836 303 803 322 822 b 419 860 367 850 393 858 b 433 860 424 860 428 860 b 500 849 456 860 478 856 b 643 742 564 828 613 783 b 690 726 654 726 672 721 b 719 767 708 732 719 747 l 719 899 b 678 940 719 922 701 940 b 636 899 654 940 636 922 l 636 868 b 528 925 603 893 567 913 b 435 940 499 935 467 940 b 415 940 426 940 421 940 b 303 906 376 938 338 926 b 219 817 268 885 239 854 b 203 779 213 804 207 792 b 135 700 175 758 151 732 b 107 589 117 667 107 628 b 107 578 107 586 107 581 b 133 481 108 543 118 510 b 193 404 149 451 169 425 b 349 322 240 361 296 339 b 532 258 406 304 481 290 b 594 200 557 243 579 224 b 621 121 610 176 619 149 b 621 111 621 117 621 115 b 585 10 621 75 607 38 b 485 -60 560 -22 524 -46 b 388 -76 454 -71 421 -76 b 342 -72 372 -76 357 -75 b 181 -10 286 -64 231 -42 z "},"":{"ha":361,"x_min":0,"x_max":0,"o":"m 256 861 b 203 808 224 861 203 835 b 256 756 203 776 229 756 b 308 808 288 756 308 782 b 256 861 308 840 282 861 z m 106 861 b 53 808 74 861 53 835 b 106 756 53 776 79 756 b 158 808 138 756 158 782 b 106 861 158 840 132 861 z "},"":{"ha":294,"x_min":0,"x_max":0,"o":"m 207 776 l 207 797 b 193 811 207 806 201 811 b 181 804 188 811 183 808 b 156 813 174 808 165 811 b 150 813 154 813 151 813 b 118 804 139 813 128 810 b 92 778 108 799 99 790 b 79 732 83 764 81 747 b 79 724 79 729 79 726 b 90 676 79 708 82 692 b 119 650 99 664 110 656 b 158 642 132 644 146 642 l 158 642 b 200 650 174 642 188 644 b 207 668 207 653 210 661 b 189 675 204 675 196 678 b 157 668 179 671 168 668 l 157 668 b 129 674 147 668 138 669 b 111 689 121 678 115 683 b 103 721 106 697 103 708 b 103 726 103 722 103 724 b 113 760 104 739 107 750 b 128 775 117 767 122 772 b 147 779 133 778 140 779 b 150 779 149 779 150 779 b 178 764 168 778 176 767 b 193 758 182 758 188 757 b 203 772 199 760 203 765 z m 143 863 b 3 722 65 863 3 800 b 143 582 3 644 65 582 b 283 722 221 582 283 644 b 143 863 283 800 221 863 z m 31 722 b 143 835 31 785 81 835 b 256 722 206 835 256 785 b 143 610 256 660 206 610 b 31 722 81 610 31 660 z "},"":{"ha":494,"x_min":0,"x_max":0,"o":"m 425 713 l 310 713 b 288 690 297 713 288 703 b 310 668 288 678 297 668 l 425 668 b 447 690 438 668 447 678 b 425 713 447 703 438 713 z m 311 911 l 151 536 b 164 508 147 525 153 513 b 192 521 175 504 188 510 l 351 896 b 339 924 356 907 350 919 b 311 911 328 928 315 922 z m 585 536 l 388 1000 b 360 1013 383 1011 371 1017 b 347 985 349 1008 343 996 l 544 521 b 572 508 549 510 561 504 b 585 536 583 513 589 525 z "},"":{"ha":592,"x_min":0,"x_max":0,"o":"m 439 182 b 524 226 468 196 496 211 b 539 282 543 238 550 263 b 483 297 528 301 503 308 b 400 253 456 282 428 267 b 325 218 375 240 350 229 b 300 181 310 211 300 197 b 324 143 300 164 308 150 b 399 108 349 132 374 121 b 482 65 426 94 454 81 b 538 81 501 54 526 61 b 522 136 549 100 542 125 b 439 181 494 151 467 167 z m 185 182 b 272 229 215 197 244 214 b 288 285 292 240 299 265 b 232 300 276 304 251 311 b 150 253 204 283 176 267 b 75 215 124 239 99 225 b 50 178 60 208 50 194 b 74 140 50 161 58 147 b 149 103 97 131 122 117 b 231 58 175 89 203 74 b 286 74 250 47 275 54 b 271 129 297 93 290 118 b 183 176 243 144 214 161 l 181 178 z "},"":{"ha":385,"x_min":0,"x_max":0,"o":"m 363 432 l 22 432 b -19 390 -1 432 -19 414 b 22 349 -19 367 -1 349 l 321 349 l 321 290 b 363 249 321 267 339 249 b 404 290 386 249 404 267 l 404 390 b 363 432 404 414 386 432 z "},"":{"ha":219,"x_min":0,"x_max":0,"o":"m 196 432 l 21 432 b -21 390 -3 432 -21 414 b 21 349 -21 367 -3 349 l 194 349 b 236 390 218 349 236 367 b 194 432 236 414 218 432 z "},"":{"ha":294,"x_min":0,"x_max":0,"o":"m 131 743 l 131 783 l 156 783 b 176 761 167 783 176 779 b 156 743 176 750 168 743 l 135 743 l 135 743 z m 103 640 l 118 640 l 133 640 b 147 654 142 640 147 646 b 133 668 147 663 142 668 l 132 668 l 132 706 b 193 639 146 681 164 653 b 211 646 200 636 208 639 b 204 664 214 653 211 661 b 158 715 183 674 168 697 b 207 760 186 715 207 733 b 158 810 207 790 188 810 l 122 810 l 119 810 l 104 810 b 90 796 96 810 90 804 b 104 782 90 788 96 782 l 106 782 l 106 667 l 104 667 b 90 653 96 667 90 661 b 104 639 90 644 96 639 z m 150 865 b 10 725 72 865 10 803 b 150 585 10 647 72 585 b 290 725 228 585 290 647 b 150 865 290 803 228 865 z m 38 725 b 150 838 38 788 88 838 b 263 725 213 838 263 788 b 150 613 263 663 213 613 b 38 725 88 613 38 663 z "},"":{"ha":463,"x_min":0,"x_max":0,"o":"m 410 432 l 53 432 b 11 390 29 432 11 414 b 53 349 11 367 29 349 l 410 349 b 451 390 433 349 451 367 b 410 432 451 414 433 432 z "},"":{"ha":238,"x_min":0,"x_max":0,"o":"m 108 1272 b 8 1172 53 1272 8 1228 b 108 1072 8 1117 53 1072 b 208 1172 164 1072 208 1117 b 108 1272 208 1228 164 1272 z m 92 1172 b 108 1189 92 1182 99 1189 b 125 1172 118 1189 125 1182 b 108 1156 125 1163 118 1156 b 92 1172 99 1156 92 1163 z "},"":{"ha":568,"x_min":0,"x_max":0,"o":"m 457 -103 l 100 -103 b 58 -144 76 -103 58 -121 b 100 -186 58 -168 76 -186 l 457 -186 b 499 -144 481 -186 499 -168 b 457 -103 499 -121 481 -103 z m 239 571 l 239 431 l 93 431 b 51 389 69 431 51 413 b 93 347 51 365 69 347 l 239 347 l 239 199 b 281 157 239 175 257 157 b 322 199 304 157 322 175 l 322 347 l 465 347 b 507 389 489 347 507 365 b 465 431 507 413 489 431 l 322 431 l 322 571 b 281 613 322 594 304 613 b 239 571 257 613 239 594 z "},"":{"ha":542,"x_min":0,"x_max":0,"o":"m 419 356 l 482 411 b 485 469 499 426 500 453 b 426 472 469 486 443 488 l 376 428 l 135 428 b 160 481 139 446 147 464 b 265 568 192 524 254 561 b 401 664 296 586 360 622 b 447 731 419 682 436 704 b 458 785 454 747 458 765 b 454 814 458 793 457 803 b 386 904 446 851 421 883 b 269 936 357 922 317 936 l 267 936 b 149 904 225 936 183 925 b 74 815 92 871 76 825 b 101 763 67 793 79 769 b 154 790 124 756 147 768 b 193 833 161 810 179 825 b 268 854 213 846 240 854 l 269 854 b 342 835 299 854 324 846 b 374 794 354 826 369 813 b 375 785 375 792 375 789 b 371 761 375 778 374 769 b 343 722 367 753 360 739 b 222 639 314 693 281 675 b 94 531 144 590 114 557 b 50 403 67 493 50 449 b 50 383 50 394 50 389 b 92 346 53 361 69 346 l 394 346 b 422 356 406 346 414 349 z "},"":{"ha":542,"x_min":0,"x_max":0,"o":"m 106 850 b 93 815 100 839 96 828 b 124 765 88 793 101 771 b 174 796 146 760 168 774 b 179 808 175 800 176 804 b 189 821 182 813 185 817 b 204 833 193 825 199 829 b 224 843 210 838 217 840 b 247 850 231 846 239 849 b 272 853 256 851 264 853 l 274 853 l 275 853 l 276 853 b 301 851 285 853 293 853 b 325 846 310 850 318 849 b 344 838 332 843 339 840 b 360 826 350 835 356 831 b 371 814 364 822 368 818 b 376 801 374 810 375 806 b 378 797 378 799 378 800 b 378 793 378 794 378 796 b 378 789 378 790 378 792 b 376 782 378 785 378 786 b 375 774 376 779 376 776 b 371 765 374 771 372 768 b 364 753 369 761 367 757 b 353 740 361 749 357 744 b 338 729 349 736 343 732 b 314 718 331 725 322 721 b 286 713 306 715 296 714 b 257 711 276 711 267 711 l 254 711 b 211 671 231 711 213 694 b 250 628 210 647 226 629 l 250 628 b 250 628 250 628 250 628 b 268 626 256 628 261 628 b 342 610 306 622 328 615 b 392 571 369 597 385 581 b 406 526 401 557 406 542 b 390 482 406 504 396 489 b 344 444 381 468 365 454 b 253 426 319 433 286 426 b 149 450 201 426 167 440 b 122 472 138 457 129 464 b 64 475 107 489 81 490 b 61 417 47 460 46 433 b 108 378 75 401 90 389 b 254 342 146 356 196 342 b 381 367 297 342 342 349 b 460 432 417 383 443 407 b 489 525 476 456 489 488 b 458 618 489 557 479 590 b 397 672 444 638 424 657 l 403 676 b 426 700 411 683 419 692 b 444 728 433 708 439 718 b 453 746 449 735 451 740 b 458 765 456 754 457 760 b 461 785 460 769 461 781 b 461 797 461 788 461 794 b 460 810 461 800 460 807 b 457 822 460 813 458 819 b 440 854 453 833 447 844 b 415 882 433 864 425 874 b 385 904 406 890 396 897 b 351 919 374 910 363 915 b 315 928 340 924 328 926 b 278 931 303 929 290 931 l 276 931 l 275 931 l 274 931 b 233 926 260 931 246 929 b 196 915 221 924 208 919 b 161 899 183 911 172 906 b 132 874 150 892 140 883 b 108 843 124 864 115 854 z "},"":{"ha":225,"x_min":0,"x_max":0,"o":"m 49 672 b 164 818 89 707 133 756 b 144 874 174 839 165 864 b 89 854 124 883 99 875 b -7 736 64 806 28 765 b -12 676 -25 721 -28 694 b 47 671 3 658 29 656 z "},"":{"ha":496,"x_min":0,"x_max":0,"o":"m 496 658 l 400 658 b 358 617 376 658 358 640 b 400 575 358 593 376 575 l 454 575 l 454 107 b 290 38 450 104 350 38 b 139 182 189 38 143 81 l 139 617 b 97 658 139 640 121 658 l 35 658 b -7 617 11 658 -7 640 b 35 575 -7 593 11 575 l 56 575 l 56 201 b 56 197 56 200 56 199 b 56 183 56 192 56 188 l 56 -264 l 35 -264 b -7 -306 11 -264 -7 -282 b 35 -347 -7 -329 11 -347 l 97 -347 l 97 -347 l 160 -347 b 201 -306 183 -347 201 -329 b 160 -264 201 -282 183 -264 l 139 -264 l 139 -1 b 290 -42 176 -28 226 -42 b 460 18 364 -42 419 -14 b 482 -15 464 7 471 -4 b 539 -40 507 -40 535 -39 l 564 -40 b 606 1 588 -40 606 -22 b 564 43 606 25 588 43 l 542 43 b 539 58 540 44 542 42 l 539 110 l 539 110 l 539 110 b 539 114 539 111 539 113 l 539 619 b 497 661 539 643 521 661 z "},"":{"ha":485,"x_min":0,"x_max":0,"o":"m 232 532 l 174 532 b 85 632 126 533 85 557 b 172 736 85 693 113 736 l 233 736 z m 400 819 b 275 819 350 819 278 819 l 275 819 l 172 819 b 1 632 69 819 1 744 b 174 447 1 513 81 450 l 233 447 l 233 -75 l 218 -75 b 176 -117 194 -75 176 -93 b 218 -158 176 -140 194 -158 l 275 -158 b 317 -117 299 -158 317 -140 l 317 486 b 317 489 317 486 317 488 b 317 514 317 497 317 506 l 317 739 l 349 739 l 349 -114 b 390 -156 349 -137 367 -156 l 446 -156 b 488 -114 469 -156 488 -137 b 446 -72 488 -90 469 -72 l 432 -72 l 432 739 b 444 739 439 739 442 739 b 489 779 468 738 488 756 b 449 824 490 803 472 822 b 401 824 449 824 429 824 z "},"":{"ha":181,"x_min":0,"x_max":0,"o":"m 117 144 b 24 51 65 144 24 103 b 117 -42 24 0 65 -42 b 210 51 168 -42 210 0 b 117 144 210 103 168 144 z "},"":{"ha":463,"x_min":0,"x_max":0,"o":"m 215 -119 b 213 -125 215 -121 214 -124 b 199 -133 208 -129 201 -132 b 179 -136 193 -135 186 -136 b 165 -136 175 -136 171 -136 b 129 -126 153 -135 140 -132 b 74 -147 108 -117 83 -126 b 94 -203 64 -168 74 -193 b 153 -219 113 -211 132 -217 b 175 -221 161 -221 168 -221 b 217 -215 189 -221 203 -219 b 268 -186 233 -211 253 -203 b 293 -122 276 -176 293 -154 l 293 -121 b 264 -56 293 -94 282 -72 b 244 -42 258 -50 251 -46 l 257 -24 b 247 36 271 -4 267 22 b 188 26 228 50 201 46 l 135 -49 b 135 -97 124 -64 124 -82 b 182 -112 146 -112 164 -118 b 190 -111 185 -111 188 -111 b 193 -111 192 -111 193 -111 b 206 -117 194 -111 201 -112 b 207 -121 207 -118 207 -119 z "},"":{"ha":299,"x_min":0,"x_max":0,"o":"m 92 342 l 168 342 l 244 342 b 286 383 268 342 286 360 b 244 425 286 407 268 425 l 210 425 l 210 893 b 193 926 210 907 204 918 b 157 935 182 935 169 938 l 40 908 b 10 858 18 903 4 881 b 60 828 15 836 38 822 l 125 843 l 125 426 l 90 426 b 49 385 67 426 49 408 b 90 343 49 361 67 343 z "},"":{"ha":389,"x_min":0,"x_max":0,"o":"m -24 628 b -24 611 -24 628 -24 611 b 22 442 -22 554 -11 494 b 92 375 39 415 63 392 b 185 349 124 356 157 349 b 190 349 186 349 189 349 b 286 379 219 350 254 358 b 351 449 314 397 336 422 b 390 617 382 501 390 561 b 346 794 390 676 381 739 b 276 865 329 822 306 847 b 179 892 243 885 208 892 b 174 892 178 892 175 892 b 76 860 135 890 101 876 b 10 786 47 840 25 814 b -26 628 -18 736 -26 681 z m 57 614 b 57 628 57 614 57 628 b 82 746 57 671 64 713 b 122 790 92 764 106 779 b 176 808 140 803 160 808 l 179 808 b 232 793 194 808 214 804 b 275 750 249 783 264 768 b 307 615 299 713 307 667 b 278 490 307 569 299 525 b 239 447 268 472 254 457 b 188 432 221 436 203 432 l 185 432 b 133 446 169 432 151 436 b 92 486 117 456 103 469 b 58 613 69 521 60 565 z "},"":{"ha":579,"x_min":0,"x_max":0,"o":"m 138 182 b 54 138 110 168 82 153 b 39 82 35 126 28 101 b 94 67 50 63 75 56 b 178 110 122 82 150 96 b 253 144 203 122 228 133 b 276 182 268 151 276 165 b 251 219 276 199 267 213 b 176 254 226 231 201 242 b 93 299 149 268 121 283 b 38 283 74 310 49 303 b 53 228 26 264 33 239 b 138 183 81 213 108 197 z m 392 185 l 394 183 l 392 182 b 304 135 361 167 332 150 b 289 79 285 124 278 99 b 344 64 300 60 325 53 b 426 108 372 79 400 94 b 501 146 453 122 478 136 b 525 183 517 153 525 167 b 500 221 525 200 515 214 b 425 258 476 231 451 244 b 343 306 399 272 371 289 b 288 290 324 317 299 310 b 303 235 276 271 283 246 b 390 188 331 219 360 203 z "},"":{"ha":953,"x_min":0,"x_max":0,"o":"m 92 342 l 168 342 l 244 342 b 286 383 268 342 286 360 b 244 425 286 407 268 425 l 210 425 l 210 893 b 193 926 210 907 204 918 b 157 935 182 935 169 938 l 40 908 b 10 858 18 903 4 881 b 60 828 15 836 38 822 l 125 843 l 125 426 l 90 426 b 49 385 67 426 49 408 b 90 343 49 361 67 343 z m 549 139 l 736 139 b 778 181 760 139 778 157 b 736 222 778 204 760 222 l 626 222 l 831 607 b 818 665 843 626 838 653 b 760 653 799 678 772 672 l 513 203 b 510 161 504 189 503 175 b 546 139 517 147 529 139 z m 900 1 l 900 507 b 858 549 900 531 882 549 b 817 507 835 549 817 531 l 817 1 b 858 -40 817 -22 835 -40 b 900 1 882 -40 900 -22 z m 311 -24 l 592 871 b 564 924 599 893 586 917 b 511 896 542 931 518 918 l 231 1 b 258 -51 224 -21 236 -44 b 311 -24 281 -58 304 -46 z "},"":{"ha":997,"x_min":0,"x_max":0,"o":"m 92 342 l 168 342 l 244 342 b 286 383 268 342 286 360 b 244 425 286 407 268 425 l 210 425 l 210 893 b 193 926 210 907 204 918 b 157 935 182 935 169 938 l 40 908 b 10 858 18 903 4 881 b 60 828 15 836 38 822 l 125 843 l 125 426 l 90 426 b 49 385 67 426 49 408 b 90 343 49 361 67 343 z m 878 -31 l 940 25 b 943 83 957 40 958 67 b 885 86 928 100 901 101 l 835 42 l 593 42 b 618 94 597 60 606 78 b 724 182 650 138 713 175 b 860 278 754 200 818 236 b 906 344 878 296 894 318 b 917 399 913 361 917 379 b 913 428 917 407 915 417 b 844 518 904 465 879 497 b 728 550 815 536 775 550 l 725 550 b 607 518 683 550 642 539 b 532 429 550 485 535 439 b 560 376 525 407 538 383 b 613 404 582 369 606 382 b 651 447 619 424 638 439 b 726 468 671 460 699 468 l 728 468 b 800 449 757 468 782 460 b 832 408 813 440 828 426 b 833 399 833 406 833 403 b 829 375 833 392 832 383 b 801 336 825 367 818 353 b 681 253 772 307 739 289 b 553 144 603 204 572 171 b 508 17 525 107 508 63 b 508 -3 508 8 508 3 b 550 -40 511 -25 528 -40 l 853 -40 b 881 -31 864 -40 872 -37 z m 315 -24 l 596 871 b 568 924 603 893 590 917 b 515 896 546 931 522 918 l 235 1 b 263 -51 228 -21 240 -44 b 315 -24 285 -58 308 -46 z "},"":{"ha":997,"x_min":0,"x_max":0,"o":"m 92 342 l 168 342 l 244 342 b 286 383 268 342 286 360 b 244 425 286 407 268 425 l 210 425 l 210 893 b 193 926 210 907 204 918 b 157 935 182 935 169 938 l 40 908 b 10 858 18 903 4 881 b 60 828 15 836 38 822 l 125 843 l 125 426 l 90 426 b 49 385 67 426 49 408 b 90 343 49 361 67 343 z m 549 139 l 736 139 b 778 181 760 139 778 157 b 736 222 778 204 760 222 l 626 222 l 831 607 b 818 665 843 626 838 653 b 760 653 799 678 772 672 l 513 203 b 510 161 504 189 503 175 b 546 139 517 147 529 139 z m 900 1 l 900 507 b 858 549 900 531 882 549 b 817 507 835 549 817 531 l 817 1 b 858 -40 817 -22 835 -40 b 900 1 882 -40 900 -22 z m 311 -24 l 592 871 b 564 924 599 893 586 917 b 511 896 542 931 518 918 l 231 1 b 258 -51 224 -21 236 -44 b 311 -24 281 -58 304 -46 z "},"":{"ha":315,"x_min":0,"x_max":0,"o":"m 217 606 l 217 681 b 175 722 217 704 199 722 b 133 681 151 722 133 704 l 133 608 b 101 493 132 568 121 529 b -10 340 75 443 19 382 b -62 244 -31 313 -50 281 b -75 167 -71 219 -75 193 b -71 125 -75 153 -74 139 b 13 -3 -61 74 -31 28 b 139 -42 50 -29 94 -42 b 158 -42 144 -42 150 -42 b 267 -6 197 -39 235 -26 b 279 53 286 7 292 33 b 221 65 267 72 240 78 b 150 40 200 51 175 43 b 136 40 144 40 140 40 b 58 64 113 40 83 46 b 8 140 44 74 17 99 b 6 165 7 149 6 157 b 14 217 6 182 8 200 b 54 292 22 242 36 267 b 172 456 90 342 139 390 b 213 607 196 501 211 554 z m 171 751 b 264 844 222 751 264 793 b 171 938 264 896 222 938 b 78 844 119 938 78 896 b 171 751 78 793 119 751 z "},"":{"ha":908,"x_min":0,"x_max":0,"o":"m 557 356 l 335 356 b 293 314 311 356 293 338 b 335 272 293 290 311 272 l 557 272 b 599 314 581 272 599 290 b 557 356 599 338 581 356 z m 336 736 l 28 17 b 49 -39 18 -4 28 -29 b 104 -18 69 -49 94 -39 l 413 701 b 392 757 422 722 413 747 b 336 736 371 767 346 757 z m 867 17 l 486 906 b 431 926 476 926 451 936 b 410 871 410 917 400 892 l 790 -18 b 846 -39 800 -39 825 -49 b 867 17 867 -29 876 -4 z m 494 1144 b 399 1263 460 1174 424 1214 b 343 1282 389 1283 364 1292 b 324 1226 322 1272 314 1247 b 439 1081 354 1164 399 1115 b 499 1086 457 1065 483 1068 b 493 1146 514 1104 511 1131 z "},"":{"ha":908,"x_min":0,"x_max":0,"o":"m 557 356 l 335 356 b 293 314 311 356 293 338 b 335 272 293 290 311 272 l 557 272 b 599 314 581 272 599 290 b 557 356 599 338 581 356 z m 336 736 l 28 17 b 49 -39 18 -4 28 -29 b 104 -18 69 -49 94 -39 l 413 701 b 392 757 422 722 413 747 b 336 736 371 767 346 757 z m 867 17 l 486 906 b 431 926 476 926 451 936 b 410 871 410 917 400 892 l 790 -18 b 846 -39 800 -39 825 -49 b 867 17 867 -29 876 -4 z m 469 1081 b 585 1226 510 1115 554 1164 b 565 1282 594 1247 586 1272 b 510 1263 544 1292 519 1283 b 414 1144 485 1214 449 1174 b 408 1085 396 1129 393 1103 b 468 1079 424 1067 450 1064 z "},"":{"ha":908,"x_min":0,"x_max":0,"o":"m 557 356 l 335 356 b 293 314 311 356 293 338 b 335 272 293 290 311 272 l 557 272 b 599 314 581 272 599 290 b 557 356 599 338 581 356 z m 336 736 l 28 17 b 49 -39 18 -4 28 -29 b 104 -18 69 -49 94 -39 l 413 701 b 392 757 422 722 413 747 b 336 736 371 767 346 757 z m 867 17 l 486 906 b 431 926 476 926 451 936 b 410 871 410 917 400 892 l 790 -18 b 846 -39 800 -39 825 -49 b 867 17 867 -29 876 -4 z m 418 1269 l 317 1138 b 324 1079 303 1119 306 1093 b 382 1086 342 1065 368 1068 l 450 1175 l 517 1086 b 575 1078 531 1068 557 1064 b 583 1136 593 1092 597 1118 l 483 1268 b 450 1285 475 1279 464 1285 b 417 1268 436 1285 425 1279 z "},"":{"ha":908,"x_min":0,"x_max":0,"o":"m 557 356 l 335 356 b 293 314 311 356 293 338 b 335 272 293 290 311 272 l 557 272 b 599 314 581 272 599 290 b 557 356 599 338 581 356 z m 336 736 l 28 17 b 49 -39 18 -4 28 -29 b 104 -18 69 -49 94 -39 l 413 701 b 392 757 422 722 413 747 b 336 736 371 767 346 757 z m 867 17 l 486 906 b 431 926 476 926 451 936 b 410 871 410 917 400 892 l 790 -18 b 846 -39 800 -39 825 -49 b 867 17 867 -29 876 -4 z m 650 1178 b 647 1199 650 1182 649 1194 b 599 1232 643 1221 621 1236 b 565 1183 576 1228 561 1206 b 567 1179 567 1179 567 1183 b 565 1172 567 1175 567 1175 b 565 1169 565 1172 569 1181 b 556 1158 564 1165 561 1161 b 539 1153 551 1156 546 1153 l 538 1153 b 518 1157 532 1153 525 1154 b 461 1200 499 1165 494 1172 b 417 1229 440 1217 426 1225 b 376 1240 397 1238 393 1239 b 365 1240 374 1240 365 1240 b 357 1240 364 1240 358 1240 b 279 1197 308 1236 283 1204 b 261 1138 267 1179 261 1158 b 267 1106 261 1128 263 1118 b 319 1079 274 1083 297 1072 b 346 1132 342 1086 353 1110 b 346 1136 346 1133 346 1135 b 349 1146 346 1138 346 1142 b 365 1153 353 1151 361 1153 b 368 1153 367 1153 368 1153 b 372 1153 369 1153 372 1153 b 386 1149 378 1153 381 1151 b 413 1132 394 1146 403 1140 b 492 1076 428 1119 457 1090 b 543 1065 507 1069 525 1065 b 549 1065 544 1065 547 1065 b 607 1085 572 1067 592 1075 b 649 1133 622 1094 639 1111 b 653 1144 651 1139 653 1142 b 658 1176 657 1157 657 1157 z "},"":{"ha":908,"x_min":0,"x_max":0,"o":"m 557 356 l 335 356 b 293 314 311 356 293 338 b 335 272 293 290 311 272 l 557 272 b 599 314 581 272 599 290 b 557 356 599 338 581 356 z m 336 736 l 28 17 b 49 -39 18 -4 28 -29 b 104 -18 69 -49 94 -39 l 413 701 b 392 757 422 722 413 747 b 336 736 371 767 346 757 z m 867 17 l 486 906 b 431 926 476 926 451 936 b 410 871 410 917 400 892 l 790 -18 b 846 -39 800 -39 825 -49 b 867 17 867 -29 876 -4 z m 532 1206 b 479 1153 500 1206 479 1179 b 532 1100 479 1121 506 1100 b 585 1153 564 1100 585 1126 b 532 1206 585 1185 558 1206 z m 382 1206 b 329 1153 350 1206 329 1179 b 382 1100 329 1121 356 1100 b 435 1153 414 1100 435 1126 b 382 1206 435 1185 408 1206 z "},"":{"ha":908,"x_min":0,"x_max":0,"o":"m 557 356 l 335 356 b 293 314 311 356 293 338 b 335 272 293 290 311 272 l 557 272 b 599 314 581 272 599 290 b 557 356 599 338 581 356 z m 336 736 l 28 17 b 49 -39 18 -4 28 -29 b 104 -18 69 -49 94 -39 l 413 701 b 392 757 422 722 413 747 b 336 736 371 767 346 757 z m 867 17 l 486 906 b 431 926 476 926 451 936 b 410 871 410 917 400 892 l 790 -18 b 846 -39 800 -39 825 -49 b 867 17 867 -29 876 -4 z m 449 1272 b 349 1172 393 1272 349 1228 b 449 1072 349 1117 393 1072 b 549 1172 504 1072 549 1117 b 449 1272 549 1228 504 1272 z m 432 1172 b 449 1189 432 1182 439 1189 b 465 1172 458 1189 465 1182 b 449 1156 465 1163 458 1156 b 432 1172 439 1156 432 1163 z "},"":{"ha":1500,"x_min":0,"x_max":0,"o":"m 706 356 l 489 356 b 447 314 465 356 447 338 b 489 272 447 290 465 272 l 706 272 b 747 314 729 272 747 290 b 706 356 747 338 729 356 z m 682 794 l 33 28 b 39 -32 18 10 21 -17 b 99 -26 57 -47 83 -44 l 747 740 b 742 800 763 758 760 785 b 682 794 724 815 697 813 z m 946 438 l 1304 438 b 1346 479 1328 438 1346 456 b 1304 521 1346 503 1328 521 l 946 521 b 904 479 922 521 904 503 b 946 438 904 456 922 438 z m 943 -40 l 1388 -40 b 1429 1 1411 -40 1429 -22 b 1388 43 1429 25 1411 43 l 943 43 b 901 1 919 43 901 25 b 943 -40 901 -22 919 -40 z m 785 890 l 785 1 b 826 -40 785 -22 803 -40 b 868 1 850 -40 868 -22 l 868 890 b 826 932 868 914 850 932 b 785 890 803 932 785 914 z m 1386 932 l 946 932 b 904 890 922 932 904 914 b 946 849 904 867 922 849 l 1386 849 b 1428 890 1410 849 1428 867 b 1386 932 1428 914 1410 932 z "},"":{"ha":894,"x_min":0,"x_max":0,"o":"m 500 -42 b 808 86 604 -42 721 -1 b 808 146 825 103 825 129 b 749 146 792 163 765 163 b 499 42 678 75 583 42 l 493 42 b 311 97 429 43 365 63 b 181 242 257 132 211 183 b 133 425 151 297 136 361 b 133 439 133 429 133 433 b 167 610 133 497 144 556 b 311 793 192 672 238 744 b 492 846 357 822 419 846 l 492 846 b 672 793 564 846 626 822 b 731 806 692 781 718 786 b 718 864 743 825 738 851 b 492 931 651 907 572 931 l 492 931 b 265 864 411 931 332 907 b 89 644 183 811 124 732 b 50 440 63 579 50 510 b 50 422 50 433 50 428 b 106 204 53 347 71 272 b 265 29 142 133 197 72 b 490 -39 332 -14 411 -37 b 496 -39 492 -39 494 -39 z m 403 -235 b 400 -240 403 -236 401 -239 b 386 -249 396 -244 389 -247 b 367 -251 381 -250 374 -251 b 353 -251 363 -251 358 -251 b 317 -242 340 -250 328 -247 b 261 -262 296 -232 271 -242 b 282 -318 251 -283 261 -308 b 340 -335 300 -326 319 -332 b 363 -336 349 -336 356 -336 b 404 -331 376 -336 390 -335 b 456 -301 421 -326 440 -318 b 481 -237 464 -292 481 -269 l 481 -236 b 451 -171 481 -210 469 -187 b 432 -157 446 -165 439 -161 l 444 -139 b 435 -79 458 -119 454 -93 b 375 -89 415 -65 389 -69 l 322 -164 b 322 -212 311 -179 311 -197 b 369 -228 333 -228 351 -233 b 378 -226 372 -226 375 -226 b 381 -226 379 -226 381 -226 b 393 -232 382 -226 389 -228 b 394 -236 394 -233 394 -235 z "},"":{"ha":849,"x_min":0,"x_max":0,"o":"m 279 436 l 638 436 b 679 478 661 436 679 454 b 638 519 679 501 661 519 l 279 519 b 238 478 256 519 238 501 b 279 436 238 454 256 436 z m 276 -42 l 721 -42 b 763 0 744 -42 763 -24 b 721 42 763 24 744 42 l 276 42 b 235 0 253 42 235 24 b 276 -42 235 -24 253 -42 z m 118 889 l 118 0 b 160 -42 118 -24 136 -42 b 201 0 183 -42 201 -24 l 201 889 b 160 931 201 913 183 931 b 118 889 136 931 118 913 z m 719 931 l 279 931 b 238 889 256 931 238 913 b 279 847 238 865 256 847 l 719 847 b 761 889 743 847 761 865 b 719 931 761 913 743 931 z m 494 1144 b 399 1263 460 1174 424 1214 b 343 1282 389 1283 364 1292 b 324 1226 322 1272 314 1247 b 439 1081 354 1164 399 1115 b 499 1086 457 1065 483 1068 b 493 1146 514 1104 511 1131 z "},"":{"ha":849,"x_min":0,"x_max":0,"o":"m 279 436 l 638 436 b 679 478 661 436 679 454 b 638 519 679 501 661 519 l 279 519 b 238 478 256 519 238 501 b 279 436 238 454 256 436 z m 276 -42 l 721 -42 b 763 0 744 -42 763 -24 b 721 42 763 24 744 42 l 276 42 b 235 0 253 42 235 24 b 276 -42 235 -24 253 -42 z m 118 889 l 118 0 b 160 -42 118 -24 136 -42 b 201 0 183 -42 201 -24 l 201 889 b 160 931 201 913 183 931 b 118 889 136 931 118 913 z m 719 931 l 279 931 b 238 889 256 931 238 913 b 279 847 238 865 256 847 l 719 847 b 761 889 743 847 761 865 b 719 931 761 913 743 931 z m 468 1081 b 583 1226 508 1115 553 1164 b 564 1282 593 1247 585 1272 b 508 1263 543 1292 518 1283 b 413 1144 483 1214 447 1174 b 407 1085 394 1129 392 1103 b 467 1079 422 1067 449 1064 z "},"":{"ha":849,"x_min":0,"x_max":0,"o":"m 279 436 l 638 436 b 679 478 661 436 679 454 b 638 519 679 501 661 519 l 279 519 b 238 478 256 519 238 501 b 279 436 238 454 256 436 z m 276 -42 l 721 -42 b 763 0 744 -42 763 -24 b 721 42 763 24 744 42 l 276 42 b 235 0 253 42 235 24 b 276 -42 235 -24 253 -42 z m 118 889 l 118 0 b 160 -42 118 -24 136 -42 b 201 0 183 -42 201 -24 l 201 889 b 160 931 201 913 183 931 b 118 889 136 931 118 913 z m 719 931 l 279 931 b 238 889 256 931 238 913 b 279 847 238 865 256 847 l 719 847 b 761 889 743 847 761 865 b 719 931 761 913 743 931 z m 418 1269 l 317 1138 b 324 1079 303 1119 306 1093 b 382 1086 342 1065 368 1068 l 450 1175 l 517 1086 b 575 1078 531 1068 557 1064 b 583 1136 593 1092 597 1118 l 483 1268 b 450 1285 475 1279 464 1285 b 417 1268 436 1285 425 1279 z "},"":{"ha":849,"x_min":0,"x_max":0,"o":"m 279 436 l 638 436 b 679 478 661 436 679 454 b 638 519 679 501 661 519 l 279 519 b 238 478 256 519 238 501 b 279 436 238 454 256 436 z m 276 -42 l 721 -42 b 763 0 744 -42 763 -24 b 721 42 763 24 744 42 l 276 42 b 235 0 253 42 235 24 b 276 -42 235 -24 253 -42 z m 118 889 l 118 0 b 160 -42 118 -24 136 -42 b 201 0 183 -42 201 -24 l 201 889 b 160 931 201 913 183 931 b 118 889 136 931 118 913 z m 719 931 l 279 931 b 238 889 256 931 238 913 b 279 847 238 865 256 847 l 719 847 b 761 889 743 847 761 865 b 719 931 761 913 743 931 z m 531 1206 b 478 1153 499 1206 478 1179 b 531 1100 478 1121 504 1100 b 583 1153 563 1100 583 1126 b 531 1206 583 1185 557 1206 z m 381 1206 b 328 1153 349 1206 328 1179 b 381 1100 328 1121 354 1100 b 433 1153 413 1100 433 1126 b 381 1206 433 1185 407 1206 z "},"":{"ha":319,"x_min":0,"x_max":0,"o":"m 118 889 l 118 0 b 160 -42 118 -24 136 -42 b 201 0 183 -42 201 -24 l 201 889 b 160 931 201 913 183 931 b 118 889 136 931 118 913 z m 232 1144 b 136 1263 197 1174 161 1214 b 81 1282 126 1283 101 1292 b 61 1226 60 1272 51 1247 b 176 1081 92 1164 136 1115 b 236 1086 194 1065 221 1068 b 231 1146 251 1104 249 1131 z "},"":{"ha":319,"x_min":0,"x_max":0,"o":"m 118 889 l 118 0 b 160 -42 118 -24 136 -42 b 201 0 183 -42 201 -24 l 201 889 b 160 931 201 913 183 931 b 118 889 136 931 118 913 z m 163 1081 b 278 1226 203 1115 247 1164 b 258 1282 288 1247 279 1272 b 203 1263 238 1292 213 1283 b 107 1144 178 1214 142 1174 b 101 1085 89 1129 86 1103 b 161 1079 117 1067 143 1064 z "},"":{"ha":319,"x_min":0,"x_max":0,"o":"m 118 889 l 118 0 b 160 -42 118 -24 136 -42 b 201 0 183 -42 201 -24 l 201 889 b 160 931 201 913 183 931 b 118 889 136 931 118 913 z m 129 1269 l 28 1138 b 35 1079 14 1119 17 1093 b 93 1086 53 1065 79 1068 l 161 1175 l 228 1086 b 286 1078 242 1068 268 1064 b 294 1136 304 1092 308 1118 l 194 1268 b 161 1285 186 1279 175 1285 b 128 1268 147 1285 136 1279 z "},"":{"ha":319,"x_min":0,"x_max":0,"o":"m 118 889 l 118 0 b 160 -42 118 -24 136 -42 b 201 0 183 -42 201 -24 l 201 889 b 160 931 201 913 183 931 b 118 889 136 931 118 913 z m 231 1206 b 178 1153 199 1206 178 1179 b 231 1100 178 1121 204 1100 b 283 1153 263 1100 283 1126 b 231 1206 283 1185 257 1206 z m 81 1206 b 28 1153 49 1206 28 1179 b 81 1100 28 1121 54 1100 b 133 1153 113 1100 133 1126 b 81 1206 133 1185 107 1206 z "},"":{"ha":1017,"x_min":0,"x_max":0,"o":"m 654 482 l 479 482 b 438 440 456 482 438 464 b 479 399 438 417 456 399 l 653 399 b 694 440 676 399 694 417 b 653 482 694 464 676 482 z m 222 482 l 47 482 b 6 440 24 482 6 464 b 47 399 6 417 24 399 l 221 399 b 263 440 244 399 263 417 b 221 482 263 464 244 482 z m 507 931 l 458 931 b 417 889 435 931 417 913 b 458 847 417 865 435 847 l 506 847 b 558 842 524 846 540 844 b 682 803 603 835 644 822 b 779 722 719 783 753 756 b 842 593 808 685 829 640 b 860 442 854 544 860 493 l 860 439 b 840 286 860 386 854 335 b 772 151 826 236 804 189 b 632 57 731 101 678 72 b 550 42 606 49 578 43 b 532 42 544 42 539 42 b 514 42 526 42 521 42 l 449 42 b 407 0 425 42 407 24 b 449 -42 407 -24 425 -42 l 511 -42 b 532 -42 519 -42 525 -42 b 554 -42 540 -42 547 -42 b 657 -22 589 -40 624 -33 b 836 99 717 -3 783 35 b 919 265 876 147 903 206 b 940 442 935 324 940 383 l 940 444 b 919 617 940 501 935 560 b 842 776 904 674 879 729 b 718 879 808 819 765 854 b 568 928 671 904 619 919 b 504 933 547 931 525 932 z m 289 892 l 289 3 b 331 -39 289 -21 307 -39 b 372 3 354 -39 372 -21 l 372 892 b 331 933 372 915 354 933 b 289 892 307 933 289 915 z "},"":{"ha":921,"x_min":0,"x_max":0,"o":"m 804 278 l 804 889 b 763 931 804 913 786 931 b 721 889 739 931 721 913 l 721 278 b 763 236 721 254 739 236 b 804 278 786 236 804 254 z m 126 865 l 728 -24 b 786 -36 740 -43 767 -49 b 799 22 806 -24 811 3 l 197 911 b 139 924 185 931 158 936 b 126 865 119 911 114 885 z m 203 0 l 203 611 b 161 653 203 635 185 653 b 119 611 138 653 119 635 l 119 0 b 161 -42 119 -24 138 -42 b 203 0 185 -42 203 -24 z m 651 1178 b 649 1199 651 1182 650 1194 b 600 1232 644 1221 622 1236 b 567 1183 578 1228 563 1206 b 568 1179 568 1179 568 1183 b 567 1172 568 1175 568 1175 b 567 1169 567 1172 571 1181 b 557 1158 565 1165 563 1161 b 540 1153 553 1156 547 1153 l 539 1153 b 519 1157 533 1153 526 1154 b 463 1200 500 1165 496 1172 b 418 1229 442 1217 428 1225 b 378 1240 399 1238 394 1239 b 367 1240 375 1240 367 1240 b 358 1240 365 1240 360 1240 b 281 1197 310 1236 285 1204 b 263 1138 268 1179 263 1158 b 268 1106 263 1128 264 1118 b 321 1079 275 1083 299 1072 b 347 1132 343 1086 354 1110 b 347 1136 347 1133 347 1135 b 350 1146 347 1138 347 1142 b 367 1153 354 1151 363 1153 b 369 1153 368 1153 369 1153 b 374 1153 371 1153 374 1153 b 388 1149 379 1153 382 1151 b 414 1132 396 1146 404 1140 b 493 1076 429 1119 458 1090 b 544 1065 508 1069 526 1065 b 550 1065 546 1065 549 1065 b 608 1085 574 1067 593 1075 b 650 1133 624 1094 640 1111 b 654 1144 653 1139 654 1142 b 660 1176 658 1157 658 1157 z "},"":{"ha":1024,"x_min":0,"x_max":0,"o":"m 501 931 b 51 444 250 931 51 710 b 501 -42 51 179 250 -42 b 951 444 753 -42 951 179 b 501 931 951 710 753 931 z m 133 444 b 500 847 133 669 300 847 b 867 444 700 847 867 669 b 500 42 867 219 700 42 b 133 444 300 42 133 219 z m 538 1144 b 442 1263 503 1174 467 1214 b 386 1282 432 1283 407 1292 b 367 1226 365 1272 357 1247 b 482 1081 397 1164 442 1115 b 542 1086 500 1065 526 1068 b 536 1146 557 1104 554 1131 z "},"":{"ha":1024,"x_min":0,"x_max":0,"o":"m 501 931 b 51 444 250 931 51 710 b 501 -42 51 179 250 -42 b 951 444 753 -42 951 179 b 501 931 951 710 753 931 z m 133 444 b 500 847 133 669 300 847 b 867 444 700 847 867 669 b 500 42 867 219 700 42 b 133 444 300 42 133 219 z m 492 1081 b 607 1226 532 1115 576 1164 b 588 1282 617 1247 608 1272 b 532 1263 567 1292 542 1283 b 436 1144 507 1214 471 1174 b 431 1085 418 1129 415 1103 b 490 1079 446 1067 472 1064 z "},"":{"ha":1024,"x_min":0,"x_max":0,"o":"m 501 931 b 51 444 250 931 51 710 b 501 -42 51 179 250 -42 b 951 444 753 -42 951 179 b 501 931 951 710 753 931 z m 133 444 b 500 847 133 669 300 847 b 867 444 700 847 867 669 b 500 42 867 219 700 42 b 133 444 300 42 133 219 z m 467 1269 l 365 1138 b 372 1079 351 1119 354 1093 b 431 1086 390 1065 417 1068 l 499 1175 l 565 1086 b 624 1078 579 1068 606 1064 b 632 1136 642 1092 646 1118 l 532 1268 b 499 1285 524 1279 513 1285 b 465 1268 485 1285 474 1279 z "},"":{"ha":1024,"x_min":0,"x_max":0,"o":"m 501 931 b 51 444 250 931 51 710 b 501 -42 51 179 250 -42 b 951 444 753 -42 951 179 b 501 931 951 710 753 931 z m 133 444 b 500 847 133 669 300 847 b 867 444 700 847 867 669 b 500 42 867 219 700 42 b 133 444 300 42 133 219 z "},"":{"ha":1024,"x_min":0,"x_max":0,"o":"m 501 931 b 51 444 250 931 51 710 b 501 -42 51 179 250 -42 b 951 444 753 -42 951 179 b 501 931 951 710 753 931 z m 133 444 b 500 847 133 669 300 847 b 867 444 700 847 867 669 b 500 42 867 219 700 42 b 133 444 300 42 133 219 z m 569 1206 b 517 1153 538 1206 517 1179 b 569 1100 517 1121 543 1100 b 622 1153 601 1100 622 1126 b 569 1206 622 1185 596 1206 z m 419 1206 b 367 1153 388 1206 367 1179 b 419 1100 367 1121 393 1100 b 472 1153 451 1100 472 1126 b 419 1206 472 1185 446 1206 z "},"":{"ha":711,"x_min":0,"x_max":0,"o":"m 633 28 l 138 569 b 79 572 122 586 96 588 b 76 514 63 557 61 531 l 572 -28 b 631 -31 588 -44 614 -46 b 633 28 647 -15 649 11 z m 440 339 l 601 514 b 599 572 617 531 615 557 b 540 569 582 588 556 586 l 379 394 b 382 336 364 378 365 351 b 440 339 399 321 425 322 z m 101 -29 l 304 189 b 301 247 319 206 318 232 b 243 244 285 263 258 261 l 40 26 b 43 -32 25 10 26 -17 b 101 -29 60 -47 86 -46 z "},"":{"ha":1024,"x_min":0,"x_max":0,"o":"m 501 931 b 51 444 250 931 51 710 b 501 -42 51 179 250 -42 b 951 444 753 -42 951 179 b 501 931 951 710 753 931 z m 133 444 b 500 847 133 669 300 847 b 867 444 700 847 867 669 b 500 42 867 219 700 42 b 133 444 300 42 133 219 z m 467 204 l 617 679 b 589 732 624 701 611 725 b 536 704 567 739 543 726 l 386 229 b 414 176 379 207 392 183 b 467 204 436 169 460 182 z "},"":{"ha":958,"x_min":0,"x_max":0,"o":"m 186 236 l 186 889 b 144 931 186 913 168 931 b 103 889 121 931 103 913 l 103 236 b 144 194 103 213 121 194 b 186 236 168 194 186 213 z m 293 78 b 225 126 267 90 243 107 b 167 129 210 143 183 144 b 164 71 150 114 149 88 b 257 3 192 42 224 19 b 474 -42 315 -25 388 -42 b 692 3 582 -42 653 -17 b 785 71 725 19 757 42 b 782 129 800 88 799 114 b 724 126 765 144 739 143 b 656 78 706 107 682 90 b 474 42 624 63 565 42 b 294 76 429 42 358 46 z m 765 888 l 765 235 b 807 193 765 211 783 193 b 849 235 831 193 849 211 l 849 888 b 807 929 849 911 831 929 b 765 888 783 929 765 911 z m 522 1143 b 426 1261 488 1172 451 1213 b 371 1281 417 1282 392 1290 b 351 1225 350 1271 342 1246 b 467 1079 382 1163 426 1114 b 526 1085 485 1064 511 1067 b 521 1144 542 1103 539 1129 z "},"":{"ha":958,"x_min":0,"x_max":0,"o":"m 186 236 l 186 889 b 144 931 186 913 168 931 b 103 889 121 931 103 913 l 103 236 b 144 194 103 213 121 194 b 186 236 168 194 186 213 z m 293 78 b 225 126 267 90 243 107 b 167 129 210 143 183 144 b 164 71 150 114 149 88 b 257 3 192 42 224 19 b 474 -42 315 -25 388 -42 b 692 3 582 -42 653 -17 b 785 71 725 19 757 42 b 782 129 800 88 799 114 b 724 126 765 144 739 143 b 656 78 706 107 682 90 b 474 42 624 63 565 42 b 294 76 429 42 358 46 z m 765 888 l 765 235 b 807 193 765 211 783 193 b 849 235 831 193 849 211 l 849 888 b 807 929 849 911 831 929 b 765 888 783 929 765 911 z m 469 1079 b 585 1225 510 1114 554 1163 b 565 1281 594 1246 586 1271 b 510 1261 544 1290 519 1282 b 414 1143 485 1213 449 1172 b 408 1083 396 1128 393 1101 b 468 1078 424 1065 450 1063 z "},"":{"ha":958,"x_min":0,"x_max":0,"o":"m 186 236 l 186 889 b 144 931 186 913 168 931 b 103 889 121 931 103 913 l 103 236 b 144 194 103 213 121 194 b 186 236 168 194 186 213 z m 293 78 b 225 126 267 90 243 107 b 167 129 210 143 183 144 b 164 71 150 114 149 88 b 257 3 192 42 224 19 b 474 -42 315 -25 388 -42 b 692 3 582 -42 653 -17 b 785 71 725 19 757 42 b 782 129 800 88 799 114 b 724 126 765 144 739 143 b 656 78 706 107 682 90 b 474 42 624 63 565 42 b 294 76 429 42 358 46 z m 765 888 l 765 235 b 807 193 765 211 783 193 b 849 235 831 193 849 211 l 849 888 b 807 929 849 911 831 929 b 765 888 783 929 765 911 z m 443 1268 l 342 1136 b 349 1078 328 1118 331 1092 b 407 1085 367 1064 393 1067 l 475 1174 l 542 1085 b 600 1076 556 1067 582 1063 b 608 1135 618 1090 622 1117 l 508 1267 b 475 1283 500 1278 489 1283 b 442 1267 461 1283 450 1278 z "},"":{"ha":958,"x_min":0,"x_max":0,"o":"m 186 236 l 186 889 b 144 931 186 913 168 931 b 103 889 121 931 103 913 l 103 236 b 144 194 103 213 121 194 b 186 236 168 194 186 213 z m 293 78 b 225 126 267 90 243 107 b 167 129 210 143 183 144 b 164 71 150 114 149 88 b 257 3 192 42 224 19 b 474 -42 315 -25 388 -42 b 692 3 582 -42 653 -17 b 785 71 725 19 757 42 b 782 129 800 88 799 114 b 724 126 765 144 739 143 b 656 78 706 107 682 90 b 474 42 624 63 565 42 b 294 76 429 42 358 46 z m 765 888 l 765 235 b 807 193 765 211 783 193 b 849 235 831 193 849 211 l 849 888 b 807 929 849 911 831 929 b 765 888 783 929 765 911 z m 543 1204 b 490 1151 511 1204 490 1178 b 543 1099 490 1119 517 1099 b 596 1151 575 1099 596 1125 b 543 1204 596 1183 569 1204 z m 393 1204 b 340 1151 361 1204 340 1178 b 393 1099 340 1119 367 1099 b 446 1151 425 1099 446 1125 b 393 1204 446 1183 419 1204 z "},"":{"ha":915,"x_min":0,"x_max":0,"o":"m 496 0 l 496 333 b 454 375 496 357 478 375 b 413 333 431 375 413 357 l 413 0 b 454 -42 413 -24 431 -42 b 496 0 478 -42 496 -24 z m 485 503 l 106 917 b 47 919 90 933 64 935 b 44 861 31 904 29 878 l 424 447 b 482 444 439 431 465 429 b 485 503 499 460 500 486 z m 804 917 l 564 656 b 567 597 549 639 550 613 b 625 600 583 582 610 583 l 865 861 b 863 919 881 878 879 904 b 804 917 846 935 819 933 z m 467 1081 b 582 1226 507 1115 551 1164 b 563 1282 592 1247 583 1272 b 507 1263 542 1292 517 1283 b 411 1144 482 1214 446 1174 b 406 1085 393 1129 390 1103 b 465 1079 421 1067 447 1064 z "},"":{"ha":842,"x_min":0,"x_max":0,"o":"m 119 889 l 119 0 b 161 -42 119 -24 138 -42 b 203 0 185 -42 203 -24 l 203 889 b 161 931 203 913 185 931 b 119 889 138 931 119 913 z m 503 822 l 301 822 b 260 781 278 822 260 804 b 301 739 260 757 278 739 l 503 739 b 694 536 656 739 694 626 b 519 349 694 417 625 349 l 306 349 b 264 307 282 349 264 331 b 306 265 264 283 282 265 l 519 265 b 778 536 664 265 778 363 b 503 822 778 686 693 822 z "},"":{"ha":940,"x_min":0,"x_max":0,"o":"m 789 258 b 701 478 789 351 757 429 b 642 474 683 493 657 492 b 646 414 626 456 628 429 b 704 258 679 385 704 333 l 704 257 b 457 42 704 85 575 42 l 357 42 b 315 0 333 42 315 24 b 357 -42 315 -24 333 -42 l 457 -42 b 788 257 660 -42 788 68 z m 201 888 b 160 929 201 911 183 929 b 118 888 136 929 118 911 l 118 107 b 118 96 118 106 118 101 b 114 50 118 68 117 58 b 114 49 114 49 114 49 l 113 47 b 113 47 111 43 113 47 b 92 42 108 43 104 42 b 78 42 86 42 81 42 b 53 76 68 42 53 57 b 11 118 53 100 35 118 b -31 76 -12 118 -31 100 b 71 -42 -31 21 11 -37 b 90 -42 76 -42 83 -42 b 175 -6 124 -42 151 -33 b 183 7 179 0 182 6 b 189 19 188 14 188 15 b 193 31 192 26 193 31 b 200 99 200 57 200 85 b 200 108 200 103 200 107 z m 436 931 l 356 931 b 314 889 332 931 314 913 b 356 847 314 865 332 847 l 436 847 b 624 686 579 847 624 779 b 436 543 624 603 563 543 l 363 543 b 321 501 339 543 321 525 b 363 460 321 478 339 460 l 436 460 b 707 686 611 460 707 556 b 436 931 707 807 643 931 z "},"":{"ha":908,"x_min":0,"x_max":0,"o":"m 493 1144 b 397 1263 458 1174 422 1214 b 342 1282 388 1283 363 1292 b 322 1226 321 1272 313 1247 b 438 1081 353 1164 397 1115 b 497 1086 456 1065 482 1068 b 492 1146 513 1104 510 1131 z m 556 357 l 333 357 b 292 315 310 357 292 339 b 333 274 292 292 310 274 l 556 274 b 597 315 579 274 597 292 b 556 357 597 339 579 357 z m 335 738 l 26 18 b 47 -37 17 -3 26 -28 b 103 -17 68 -47 93 -37 l 411 703 b 390 758 421 724 411 749 b 335 738 369 768 344 758 z m 865 18 l 485 907 b 429 928 475 928 450 938 b 408 872 408 918 399 893 l 789 -17 b 844 -37 799 -37 824 -47 b 865 18 865 -28 875 -3 z "},"":{"ha":908,"x_min":0,"x_max":0,"o":"m 468 1081 b 583 1226 508 1115 553 1164 b 564 1282 593 1247 585 1272 b 508 1263 543 1292 518 1283 b 413 1144 483 1214 447 1174 b 407 1085 394 1129 392 1103 b 467 1079 422 1067 449 1064 z m 556 353 l 333 353 b 292 311 310 353 292 335 b 333 269 292 288 310 269 l 556 269 b 597 311 579 269 597 288 b 556 353 597 335 579 353 z m 335 733 l 26 14 b 47 -42 17 -7 26 -32 b 103 -21 68 -51 93 -42 l 411 699 b 390 754 421 719 411 744 b 335 733 369 764 344 754 z m 865 14 l 485 903 b 429 924 475 924 450 933 b 408 868 408 914 399 889 l 789 -21 b 844 -42 799 -42 824 -51 b 865 14 865 -32 875 -7 z "},"":{"ha":908,"x_min":0,"x_max":0,"o":"m 418 1269 l 317 1138 b 324 1079 303 1119 306 1093 b 382 1086 342 1065 368 1068 l 450 1175 l 517 1086 b 575 1078 531 1068 557 1064 b 583 1136 593 1092 597 1118 l 483 1268 b 450 1285 475 1279 464 1285 b 417 1268 436 1285 425 1279 z m 556 353 l 333 353 b 292 311 310 353 292 335 b 333 269 292 288 310 269 l 556 269 b 597 311 579 269 597 288 b 556 353 597 335 579 353 z m 335 733 l 26 14 b 47 -42 17 -7 26 -32 b 103 -21 68 -51 93 -42 l 411 699 b 390 754 421 719 411 744 b 335 733 369 764 344 754 z m 865 14 l 485 903 b 429 924 475 924 450 933 b 408 868 408 914 399 889 l 789 -21 b 844 -42 799 -42 824 -51 b 865 14 865 -32 875 -7 z "},"":{"ha":908,"x_min":0,"x_max":0,"o":"m 650 1178 b 647 1199 650 1182 649 1194 b 599 1232 643 1221 621 1236 b 565 1183 576 1228 561 1206 b 567 1179 567 1179 567 1183 b 565 1172 567 1175 567 1175 b 565 1169 565 1172 569 1181 b 556 1158 564 1165 561 1161 b 539 1153 551 1156 546 1153 l 538 1153 b 518 1157 532 1153 525 1154 b 461 1200 499 1165 494 1172 b 417 1229 440 1217 426 1225 b 376 1240 397 1238 393 1239 b 365 1240 374 1240 365 1240 b 357 1240 364 1240 358 1240 b 279 1197 308 1236 283 1204 b 261 1138 267 1179 261 1158 b 267 1106 261 1128 263 1118 b 319 1079 274 1083 297 1072 b 346 1132 342 1086 353 1110 b 346 1136 346 1133 346 1135 b 349 1146 346 1138 346 1142 b 365 1153 353 1151 361 1153 b 368 1153 367 1153 368 1153 b 372 1153 369 1153 372 1153 b 386 1149 378 1153 381 1151 b 413 1132 394 1146 403 1140 b 492 1076 428 1119 457 1090 b 543 1065 507 1069 525 1065 b 549 1065 544 1065 547 1065 b 607 1085 572 1067 592 1075 b 649 1133 622 1094 639 1111 b 653 1144 651 1139 653 1142 b 658 1176 657 1157 657 1157 z m 565 353 l 343 353 b 301 311 319 353 301 335 b 343 269 301 288 319 269 l 565 269 b 607 311 589 269 607 288 b 565 353 607 335 589 353 z m 344 733 l 36 14 b 57 -42 26 -7 36 -32 b 113 -21 78 -51 103 -42 l 421 699 b 400 754 431 719 421 744 b 344 733 379 764 354 754 z m 875 14 l 494 903 b 439 924 485 924 460 933 b 418 868 418 914 408 889 l 799 -21 b 854 -42 808 -42 833 -51 b 875 14 875 -32 885 -7 z "},"":{"ha":908,"x_min":0,"x_max":0,"o":"m 531 1206 b 478 1153 499 1206 478 1179 b 531 1100 478 1121 504 1100 b 583 1153 563 1100 583 1126 b 531 1206 583 1185 557 1206 z m 381 1206 b 328 1153 349 1206 328 1179 b 381 1100 328 1121 354 1100 b 433 1153 413 1100 433 1126 b 381 1206 433 1185 407 1206 z m 557 356 l 335 356 b 293 314 311 356 293 338 b 335 272 293 290 311 272 l 557 272 b 599 314 581 272 599 290 b 557 356 599 338 581 356 z m 336 736 l 28 17 b 49 -39 18 -4 28 -29 b 104 -18 69 -49 94 -39 l 413 701 b 392 757 422 722 413 747 b 336 736 371 767 346 757 z m 867 17 l 486 906 b 431 926 476 926 451 936 b 410 871 410 917 400 892 l 790 -18 b 846 -39 800 -39 825 -49 b 867 17 867 -29 876 -4 z "},"":{"ha":908,"x_min":0,"x_max":0,"o":"m 447 1272 b 347 1172 392 1272 347 1228 b 447 1072 347 1117 392 1072 b 547 1172 503 1072 547 1117 b 447 1272 547 1228 503 1272 z m 431 1172 b 447 1189 431 1182 438 1189 b 464 1172 457 1189 464 1182 b 447 1156 464 1163 457 1156 b 431 1172 438 1156 431 1163 z m 557 356 l 335 356 b 293 314 311 356 293 338 b 335 272 293 290 311 272 l 557 272 b 599 314 581 272 599 290 b 557 356 599 338 581 356 z m 336 736 l 28 17 b 49 -39 18 -4 28 -29 b 104 -18 69 -49 94 -39 l 413 701 b 392 757 422 722 413 747 b 336 736 371 767 346 757 z m 867 17 l 486 906 b 431 926 476 926 451 936 b 410 871 410 917 400 892 l 790 -18 b 846 -39 800 -39 825 -49 b 867 17 867 -29 876 -4 z "},"":{"ha":1500,"x_min":0,"x_max":0,"o":"m 706 356 l 489 356 b 447 314 465 356 447 338 b 489 272 447 290 465 272 l 706 272 b 747 314 729 272 747 290 b 706 356 747 338 729 356 z m 682 794 l 33 28 b 39 -32 18 10 21 -17 b 99 -26 57 -47 83 -44 l 747 740 b 742 800 763 758 760 785 b 682 794 724 815 697 813 z m 946 438 l 1304 438 b 1346 479 1328 438 1346 456 b 1304 521 1346 503 1328 521 l 946 521 b 904 479 922 521 904 503 b 946 438 904 456 922 438 z m 943 -40 l 1388 -40 b 1429 1 1411 -40 1429 -22 b 1388 43 1429 25 1411 43 l 943 43 b 901 1 919 43 901 25 b 943 -40 901 -22 919 -40 z m 785 890 l 785 1 b 826 -40 785 -22 803 -40 b 868 1 850 -40 868 -22 l 868 890 b 826 932 868 914 850 932 b 785 890 803 932 785 914 z m 1386 932 l 946 932 b 904 890 922 932 904 914 b 946 849 904 867 922 849 l 1386 849 b 1428 890 1410 849 1428 867 b 1386 932 1428 914 1410 932 z "},"":{"ha":894,"x_min":0,"x_max":0,"o":"m 465 -168 b 463 -174 465 -169 464 -172 b 449 -182 458 -178 451 -181 b 429 -185 443 -183 436 -185 b 415 -185 425 -185 421 -185 b 379 -175 403 -183 390 -181 b 324 -196 358 -165 333 -175 b 344 -251 314 -217 324 -242 b 403 -268 363 -260 382 -265 b 425 -269 411 -269 418 -269 b 467 -264 439 -269 453 -268 b 518 -235 483 -260 503 -251 b 543 -171 526 -225 543 -203 l 543 -169 b 514 -104 543 -143 532 -121 b 494 -90 508 -99 501 -94 l 507 -72 b 514 -44 513 -64 515 -54 b 493 -44 507 -44 500 -44 b 488 -44 492 -44 489 -44 b 429 -40 468 -44 449 -43 l 388 -100 b 388 -149 376 -115 376 -133 b 435 -164 399 -164 417 -169 b 443 -162 438 -162 440 -162 b 446 -162 444 -162 446 -162 b 458 -168 447 -162 454 -164 b 460 -172 460 -169 460 -171 z m 439 -28 b 499 -18 453 -8 479 -4 b 515 -47 508 -25 514 -36 b 806 79 615 -43 724 -3 b 806 139 822 96 822 122 b 746 139 789 156 763 156 b 496 35 675 68 581 35 l 490 35 b 308 90 426 36 363 56 b 178 235 254 125 208 176 b 131 418 149 290 133 354 b 131 432 131 422 131 426 b 164 603 131 490 142 549 b 308 786 189 665 235 738 b 489 839 354 815 417 839 l 489 839 b 669 786 561 839 624 815 b 728 799 689 774 715 779 b 715 857 740 818 735 844 b 489 924 649 900 569 924 l 489 924 b 263 857 408 924 329 900 b 86 638 181 804 121 725 b 47 433 60 572 47 503 b 47 415 47 426 47 421 b 103 197 50 340 68 265 b 263 22 139 126 194 65 b 428 -40 313 -10 369 -31 z "},"":{"ha":849,"x_min":0,"x_max":0,"o":"m 493 1144 b 397 1263 458 1174 422 1214 b 342 1282 388 1283 363 1292 b 322 1226 321 1272 313 1247 b 438 1081 353 1164 397 1115 b 497 1086 456 1065 482 1068 b 492 1146 513 1104 510 1131 z m 278 438 l 636 438 b 678 479 660 438 678 456 b 636 521 678 503 660 521 l 278 521 b 236 479 254 521 236 503 b 278 438 236 456 254 438 z m 275 -40 l 719 -40 b 761 1 743 -40 761 -22 b 719 43 761 25 743 43 l 275 43 b 233 1 251 43 233 25 b 275 -40 233 -22 251 -40 z m 117 890 l 117 1 b 158 -40 117 -22 135 -40 b 200 1 182 -40 200 -22 l 200 890 b 158 932 200 914 182 932 b 117 890 135 932 117 914 z m 718 932 l 278 932 b 236 890 254 932 236 914 b 278 849 236 867 254 849 l 718 849 b 760 890 742 849 760 867 b 718 932 760 914 742 932 z "},"":{"ha":849,"x_min":0,"x_max":0,"o":"m 468 1081 b 583 1226 508 1115 553 1164 b 564 1282 593 1247 585 1272 b 508 1263 543 1292 518 1283 b 413 1144 483 1214 447 1174 b 407 1085 394 1129 392 1103 b 467 1079 422 1067 449 1064 z m 278 435 l 636 435 b 678 476 660 435 678 453 b 636 518 678 500 660 518 l 278 518 b 236 476 254 518 236 500 b 278 435 236 453 254 435 z m 275 -43 l 719 -43 b 761 -1 743 -43 761 -25 b 719 40 761 22 743 40 l 275 40 b 233 -1 251 40 233 22 b 275 -43 233 -25 251 -43 z m 117 888 l 117 -1 b 158 -43 117 -25 135 -43 b 200 -1 182 -43 200 -25 l 200 888 b 158 929 200 911 182 929 b 117 888 135 929 117 911 z m 718 929 l 278 929 b 236 888 254 929 236 911 b 278 846 236 864 254 846 l 718 846 b 760 888 742 846 760 864 b 718 929 760 911 742 929 z "},"":{"ha":849,"x_min":0,"x_max":0,"o":"m 418 1269 l 317 1138 b 324 1079 303 1119 306 1093 b 382 1086 342 1065 368 1068 l 450 1175 l 517 1086 b 575 1078 531 1068 557 1064 b 583 1136 593 1092 597 1118 l 483 1268 b 450 1285 475 1279 464 1285 b 417 1268 436 1285 425 1279 z m 278 435 l 636 435 b 678 476 660 435 678 453 b 636 518 678 500 660 518 l 278 518 b 236 476 254 518 236 500 b 278 435 236 453 254 435 z m 275 -43 l 719 -43 b 761 -1 743 -43 761 -25 b 719 40 761 22 743 40 l 275 40 b 233 -1 251 40 233 22 b 275 -43 233 -25 251 -43 z m 117 888 l 117 -1 b 158 -43 117 -25 135 -43 b 200 -1 182 -43 200 -25 l 200 888 b 158 929 200 911 182 929 b 117 888 135 929 117 911 z m 718 929 l 278 929 b 236 888 254 929 236 911 b 278 846 236 864 254 846 l 718 846 b 760 888 742 846 760 864 b 718 929 760 911 742 929 z "},"":{"ha":849,"x_min":0,"x_max":0,"o":"m 531 1206 b 478 1153 499 1206 478 1179 b 531 1100 478 1121 504 1100 b 583 1153 563 1100 583 1126 b 531 1206 583 1185 557 1206 z m 381 1206 b 328 1153 349 1206 328 1179 b 381 1100 328 1121 354 1100 b 433 1153 413 1100 433 1126 b 381 1206 433 1185 407 1206 z m 279 436 l 638 436 b 679 478 661 436 679 454 b 638 519 679 501 661 519 l 279 519 b 238 478 256 519 238 501 b 279 436 238 454 256 436 z m 276 -42 l 721 -42 b 763 0 744 -42 763 -24 b 721 42 763 24 744 42 l 276 42 b 235 0 253 42 235 24 b 276 -42 235 -24 253 -42 z m 118 889 l 118 0 b 160 -42 118 -24 136 -42 b 201 0 183 -42 201 -24 l 201 889 b 160 931 201 913 183 931 b 118 889 136 931 118 913 z m 719 931 l 279 931 b 238 889 256 931 238 913 b 279 847 238 865 256 847 l 719 847 b 761 889 743 847 761 865 b 719 931 761 913 743 931 z "},"":{"ha":319,"x_min":0,"x_max":0,"o":"m 232 1144 b 136 1263 197 1174 161 1214 b 81 1282 126 1283 101 1292 b 61 1226 60 1272 51 1247 b 176 1081 92 1164 136 1115 b 236 1086 194 1065 221 1068 b 231 1146 251 1104 249 1131 z m 117 890 l 117 1 b 158 -40 117 -22 135 -40 b 200 1 182 -40 200 -22 l 200 890 b 158 932 200 914 182 932 b 117 890 135 932 117 914 z "},"":{"ha":319,"x_min":0,"x_max":0,"o":"m 163 1081 b 278 1226 203 1115 247 1164 b 258 1282 288 1247 279 1272 b 203 1263 238 1292 213 1283 b 107 1144 178 1214 142 1174 b 101 1085 89 1129 86 1103 b 161 1079 117 1067 143 1064 z m 117 888 l 117 -1 b 158 -43 117 -25 135 -43 b 200 -1 182 -43 200 -25 l 200 888 b 158 929 200 911 182 929 b 117 888 135 929 117 911 z "},"":{"ha":319,"x_min":0,"x_max":0,"o":"m 129 1269 l 28 1138 b 35 1079 14 1119 17 1093 b 93 1086 53 1065 79 1068 l 161 1175 l 228 1086 b 286 1078 242 1068 268 1064 b 294 1136 304 1092 308 1118 l 194 1268 b 161 1285 186 1279 175 1285 b 128 1268 147 1285 136 1279 z m 117 888 l 117 -1 b 158 -43 117 -25 135 -43 b 200 -1 182 -43 200 -25 l 200 888 b 158 929 200 911 182 929 b 117 888 135 929 117 911 z "},"":{"ha":319,"x_min":0,"x_max":0,"o":"m 231 1206 b 178 1153 199 1206 178 1179 b 231 1100 178 1121 204 1100 b 283 1153 263 1100 283 1126 b 231 1206 283 1185 257 1206 z m 81 1206 b 28 1153 49 1206 28 1179 b 81 1100 28 1121 54 1100 b 133 1153 113 1100 133 1126 b 81 1206 133 1185 107 1206 z m 118 889 l 118 0 b 160 -42 118 -24 136 -42 b 201 0 183 -42 201 -24 l 201 889 b 160 931 201 913 183 931 b 118 889 136 931 118 913 z "},"":{"ha":1017,"x_min":0,"x_max":0,"o":"m 654 482 l 479 482 b 438 440 456 482 438 464 b 479 399 438 417 456 399 l 653 399 b 694 440 676 399 694 417 b 653 482 694 464 676 482 z m 222 482 l 47 482 b 6 440 24 482 6 464 b 47 399 6 417 24 399 l 221 399 b 263 440 244 399 263 417 b 221 482 263 464 244 482 z m 507 931 l 458 931 b 417 889 435 931 417 913 b 458 847 417 865 435 847 l 506 847 b 558 842 524 846 540 844 b 682 803 603 835 644 822 b 779 722 719 783 753 756 b 842 593 808 685 829 640 b 860 442 854 544 860 493 l 860 439 b 840 286 860 386 854 335 b 772 151 826 236 804 189 b 632 57 731 101 678 72 b 550 42 606 49 578 43 b 532 42 544 42 539 42 b 514 42 526 42 521 42 l 449 42 b 407 0 425 42 407 24 b 449 -42 407 -24 425 -42 l 511 -42 b 532 -42 519 -42 525 -42 b 554 -42 540 -42 547 -42 b 657 -22 589 -40 624 -33 b 836 99 717 -3 783 35 b 919 265 876 147 903 206 b 940 442 935 324 940 383 l 940 444 b 919 617 940 501 935 560 b 842 776 904 674 879 729 b 718 879 808 819 765 854 b 568 928 671 904 619 919 b 504 933 547 931 525 932 z m 289 892 l 289 3 b 331 -39 289 -21 307 -39 b 372 3 354 -39 372 -21 l 372 892 b 331 933 372 915 354 933 b 289 892 307 933 289 915 z "},"":{"ha":921,"x_min":0,"x_max":0,"o":"m 650 1178 b 647 1199 650 1182 649 1194 b 599 1232 643 1221 621 1236 b 565 1183 576 1228 561 1206 b 567 1179 567 1179 567 1183 b 565 1172 567 1175 567 1175 b 565 1169 565 1172 569 1181 b 556 1158 564 1165 561 1161 b 539 1153 551 1156 546 1153 l 538 1153 b 518 1157 532 1153 525 1154 b 461 1200 499 1165 494 1172 b 417 1229 440 1217 426 1225 b 376 1240 397 1238 393 1239 b 365 1240 374 1240 365 1240 b 357 1240 364 1240 358 1240 b 279 1197 308 1236 283 1204 b 261 1138 267 1179 261 1158 b 267 1106 261 1128 263 1118 b 319 1079 274 1083 297 1072 b 346 1132 342 1086 353 1110 b 346 1136 346 1133 346 1135 b 349 1146 346 1138 346 1142 b 365 1153 353 1151 361 1153 b 368 1153 367 1153 368 1153 b 372 1153 369 1153 372 1153 b 386 1149 378 1153 381 1151 b 413 1132 394 1146 403 1140 b 492 1076 428 1119 457 1090 b 543 1065 507 1069 525 1065 b 549 1065 544 1065 547 1065 b 607 1085 572 1067 592 1075 b 649 1133 622 1094 639 1111 b 653 1144 651 1139 653 1142 b 658 1176 657 1157 657 1157 z m 813 276 l 813 888 b 771 929 813 911 794 929 b 729 888 747 929 729 911 l 729 276 b 771 235 729 253 747 235 b 813 276 794 235 813 253 z m 135 864 l 736 -25 b 794 -37 749 -44 775 -50 b 807 21 814 -25 819 1 l 206 910 b 147 922 193 929 167 935 b 135 864 128 910 122 883 z m 211 -1 l 211 610 b 169 651 211 633 193 651 b 128 610 146 651 128 633 l 128 -1 b 169 -43 128 -25 146 -43 b 211 -1 193 -43 211 -25 z "},"":{"ha":1024,"x_min":0,"x_max":0,"o":"m 538 1144 b 442 1263 503 1174 467 1214 b 386 1282 432 1283 407 1292 b 367 1226 365 1272 357 1247 b 482 1081 397 1164 442 1115 b 542 1086 500 1065 526 1068 b 536 1146 557 1104 554 1131 z m 500 932 b 50 446 249 932 50 711 b 500 -40 50 181 249 -40 b 950 446 751 -40 950 181 b 500 932 950 711 751 932 z m 132 446 b 499 849 132 671 299 849 b 865 446 699 849 865 671 b 499 43 865 221 699 43 b 132 446 299 43 132 221 z "},"":{"ha":1024,"x_min":0,"x_max":0,"o":"m 493 1081 b 608 1226 533 1115 578 1164 b 589 1282 618 1247 610 1272 b 533 1263 568 1292 543 1283 b 438 1144 508 1214 472 1174 b 432 1085 419 1129 417 1103 b 492 1079 447 1067 474 1064 z m 500 928 b 50 442 249 928 50 707 b 500 -44 50 176 249 -44 b 950 442 751 -44 950 176 b 500 928 950 707 751 928 z m 132 442 b 499 844 132 667 299 844 b 865 442 699 844 865 667 b 499 39 865 217 699 39 b 132 442 299 39 132 217 z "},"":{"ha":1024,"x_min":0,"x_max":0,"o":"m 468 1269 l 367 1138 b 374 1079 353 1119 356 1093 b 432 1086 392 1065 418 1068 l 500 1175 l 567 1086 b 625 1078 581 1068 607 1064 b 633 1136 643 1092 647 1118 l 533 1268 b 500 1285 525 1279 514 1285 b 467 1268 486 1285 475 1279 z m 500 928 b 50 442 249 928 50 707 b 500 -44 50 176 249 -44 b 950 442 751 -44 950 176 b 500 928 950 707 751 928 z m 132 442 b 499 844 132 667 299 844 b 865 442 699 844 865 667 b 499 39 865 217 699 39 b 132 442 299 39 132 217 z "},"":{"ha":1024,"x_min":0,"x_max":0,"o":"m 501 931 b 51 444 250 931 51 710 b 501 -42 51 179 250 -42 b 951 444 753 -42 951 179 b 501 931 951 710 753 931 z m 133 444 b 500 847 133 669 300 847 b 867 444 700 847 867 669 b 500 42 867 219 700 42 b 133 444 300 42 133 219 z "},"":{"ha":1024,"x_min":0,"x_max":0,"o":"m 569 1206 b 517 1153 538 1206 517 1179 b 569 1100 517 1121 543 1100 b 622 1153 601 1100 622 1126 b 569 1206 622 1185 596 1206 z m 419 1206 b 367 1153 388 1206 367 1179 b 419 1100 367 1121 393 1100 b 472 1153 451 1100 472 1126 b 419 1206 472 1185 446 1206 z m 501 931 b 51 444 250 931 51 710 b 501 -42 51 179 250 -42 b 951 444 753 -42 951 179 b 501 931 951 710 753 931 z m 133 444 b 500 847 133 669 300 847 b 867 444 700 847 867 669 b 500 42 867 219 700 42 b 133 444 300 42 133 219 z "},"":{"ha":308,"x_min":0,"x_max":0,"o":"m 240 349 l 65 349 b 24 307 42 349 24 331 b 65 265 24 283 42 265 l 239 265 b 281 307 263 265 281 283 b 239 349 281 331 263 349 z m 165 667 b 72 574 114 667 72 625 b 165 481 72 522 114 481 b 258 574 217 481 258 522 b 165 667 258 625 217 667 z m 165 144 b 72 51 114 144 72 103 b 165 -42 72 0 114 -42 b 258 51 217 -42 258 0 b 165 144 258 103 217 144 z "},"":{"ha":1024,"x_min":0,"x_max":0,"o":"m 501 931 b 51 444 250 931 51 710 b 501 -42 51 179 250 -42 b 951 444 753 -42 951 179 b 501 931 951 710 753 931 z m 133 444 b 500 847 133 669 300 847 b 867 444 700 847 867 669 b 500 42 867 219 700 42 b 133 444 300 42 133 219 z m 467 204 l 617 679 b 589 732 624 701 611 725 b 536 704 567 739 543 726 l 386 229 b 414 176 379 207 392 183 b 467 204 436 169 460 182 z "},"":{"ha":958,"x_min":0,"x_max":0,"o":"m 521 1144 b 425 1263 486 1174 450 1214 b 369 1282 415 1283 390 1292 b 350 1226 349 1272 340 1247 b 465 1081 381 1164 425 1115 b 525 1086 483 1065 510 1068 b 519 1146 540 1104 538 1131 z m 185 238 l 185 890 b 143 932 185 914 167 932 b 101 890 119 932 101 914 l 101 238 b 143 196 101 214 119 196 b 185 238 167 196 185 214 z m 292 79 b 224 128 265 92 242 108 b 165 131 208 144 182 146 b 163 72 149 115 147 89 b 256 4 190 43 222 21 b 472 -40 314 -24 386 -40 b 690 4 581 -40 651 -15 b 783 72 724 21 756 43 b 781 131 799 89 797 115 b 722 128 764 146 738 144 b 654 79 704 108 681 92 b 472 43 622 64 564 43 b 293 78 428 43 357 47 z m 764 889 l 764 236 b 806 194 764 213 782 194 b 847 236 829 194 847 213 l 847 889 b 806 931 847 913 829 931 b 764 889 782 931 764 913 z "},"":{"ha":958,"x_min":0,"x_max":0,"o":"m 468 1081 b 583 1226 508 1115 553 1164 b 564 1282 593 1247 585 1272 b 508 1263 543 1292 518 1283 b 413 1144 483 1214 447 1174 b 407 1085 394 1129 392 1103 b 467 1079 422 1067 449 1064 z m 185 233 l 185 886 b 143 928 185 910 167 928 b 101 886 119 928 101 910 l 101 233 b 143 192 101 210 119 192 b 185 233 167 192 185 210 z m 292 75 b 224 124 265 88 242 104 b 165 126 208 140 182 142 b 163 68 149 111 147 85 b 256 0 190 39 222 17 b 472 -44 314 -28 386 -44 b 690 0 581 -44 651 -19 b 783 68 724 17 756 39 b 781 126 799 85 797 111 b 722 124 764 142 738 140 b 654 75 704 104 681 88 b 472 39 622 60 564 39 b 293 74 428 39 357 43 z m 764 885 l 764 232 b 806 190 764 208 782 190 b 847 232 829 190 847 208 l 847 885 b 806 926 847 908 829 926 b 764 885 782 926 764 908 z "},"":{"ha":958,"x_min":0,"x_max":0,"o":"m 443 1269 l 342 1138 b 349 1079 328 1119 331 1093 b 407 1086 367 1065 393 1068 l 475 1175 l 542 1086 b 600 1078 556 1068 582 1064 b 608 1136 618 1092 622 1118 l 508 1268 b 475 1285 500 1279 489 1285 b 442 1268 461 1285 450 1279 z m 186 233 l 186 886 b 144 928 186 910 168 928 b 103 886 121 928 103 910 l 103 233 b 144 192 103 210 121 192 b 186 233 168 192 186 210 z m 293 75 b 225 124 267 88 243 104 b 167 126 210 140 183 142 b 164 68 150 111 149 85 b 257 0 192 39 224 17 b 474 -44 315 -28 388 -44 b 692 0 582 -44 653 -19 b 785 68 725 17 757 39 b 782 126 800 85 799 111 b 724 124 765 142 739 140 b 656 75 706 104 682 88 b 474 39 624 60 565 39 b 294 74 429 39 358 43 z m 765 885 l 765 232 b 807 190 765 208 783 190 b 849 232 831 190 849 208 l 849 885 b 807 926 849 908 831 926 b 765 885 783 926 765 908 z "},"":{"ha":958,"x_min":0,"x_max":0,"o":"m 542 1206 b 489 1153 510 1206 489 1179 b 542 1100 489 1121 515 1100 b 594 1153 574 1100 594 1126 b 542 1206 594 1185 568 1206 z m 392 1206 b 339 1153 360 1206 339 1179 b 392 1100 339 1121 365 1100 b 444 1153 424 1100 444 1126 b 392 1206 444 1185 418 1206 z m 186 236 l 186 889 b 144 931 186 913 168 931 b 103 889 121 931 103 913 l 103 236 b 144 194 103 213 121 194 b 186 236 168 194 186 213 z m 293 78 b 225 126 267 90 243 107 b 167 129 210 143 183 144 b 164 71 150 114 149 88 b 257 3 192 42 224 19 b 474 -42 315 -25 388 -42 b 692 3 582 -42 653 -17 b 785 71 725 19 757 42 b 782 129 800 88 799 114 b 724 126 765 144 739 143 b 656 78 706 107 682 90 b 474 42 624 63 565 42 b 294 76 429 42 358 46 z m 765 888 l 765 235 b 807 193 765 211 783 193 b 849 235 831 193 849 211 l 849 888 b 807 929 849 911 831 929 b 765 888 783 929 765 911 z "},"":{"ha":915,"x_min":0,"x_max":0,"o":"m 468 1081 b 583 1226 508 1115 553 1164 b 564 1282 593 1247 585 1272 b 508 1263 543 1292 518 1283 b 413 1144 483 1214 447 1174 b 407 1085 394 1129 392 1103 b 467 1079 422 1067 449 1064 z m 494 -1 l 494 332 b 453 374 494 356 476 374 b 411 332 429 374 411 356 l 411 -1 b 453 -43 411 -25 429 -43 b 494 -1 476 -43 494 -25 z m 483 501 l 104 915 b 46 918 89 932 63 933 b 43 860 29 903 28 876 l 422 446 b 481 443 438 429 464 428 b 483 501 497 458 499 485 z m 803 915 l 563 654 b 565 596 547 638 549 611 b 624 599 582 581 608 582 l 864 860 b 861 918 879 876 878 903 b 803 915 844 933 818 932 z "},"":{"ha":842,"x_min":0,"x_max":0,"o":"m 119 889 l 119 0 b 161 -42 119 -24 138 -42 b 203 0 185 -42 203 -24 l 203 889 b 161 931 203 913 185 931 b 119 889 138 931 119 913 z m 503 822 l 301 822 b 260 781 278 822 260 804 b 301 739 260 757 278 739 l 503 739 b 694 536 656 739 694 626 b 519 349 694 417 625 349 l 306 349 b 264 307 282 349 264 331 b 306 265 264 283 282 265 l 519 265 b 778 536 664 265 778 363 b 503 822 778 686 693 822 z "},"":{"ha":915,"x_min":0,"x_max":0,"o":"m 496 0 l 496 333 b 454 375 496 357 478 375 b 413 333 431 375 413 357 l 413 0 b 454 -42 413 -24 431 -42 b 496 0 478 -42 496 -24 z m 485 503 l 106 917 b 47 919 90 933 64 935 b 44 861 31 904 29 878 l 424 447 b 482 444 439 431 465 429 b 485 503 499 460 500 486 z m 804 917 l 564 656 b 567 597 549 639 550 613 b 625 600 583 582 610 583 l 865 861 b 863 919 881 878 879 904 b 804 917 846 935 819 933 z m 540 1206 b 488 1153 508 1206 488 1179 b 540 1100 488 1121 514 1100 b 593 1153 572 1100 593 1126 b 540 1206 593 1185 567 1206 z m 390 1206 b 338 1153 358 1206 338 1179 b 390 1100 338 1121 364 1100 b 443 1153 422 1100 443 1126 b 390 1206 443 1185 417 1206 z "},"":{"ha":1514,"x_min":0,"x_max":0,"o":"m 447 -39 b 768 60 551 -49 672 -19 b 774 119 786 75 789 101 b 714 125 758 138 732 140 b 454 44 636 61 539 38 l 449 44 b 271 115 385 51 322 76 b 154 269 219 154 179 208 b 125 457 131 328 121 393 b 125 471 125 461 125 465 b 174 640 131 529 147 588 b 335 808 204 700 257 767 b 519 844 382 833 447 851 l 519 844 b 696 775 592 838 653 808 b 754 782 714 761 740 764 b 747 840 768 800 765 826 b 529 928 685 890 608 921 l 529 928 b 299 881 450 935 369 918 b 103 676 213 835 146 761 b 46 476 71 614 51 546 b 46 458 46 469 46 464 b 82 236 42 383 53 307 b 225 47 113 163 161 96 b 443 -40 288 -1 364 -32 b 449 -40 444 -40 447 -40 z m 964 435 l 1322 435 b 1364 476 1346 435 1364 453 b 1322 518 1364 500 1346 518 l 964 518 b 922 476 940 518 922 500 b 964 435 922 453 940 435 z m 961 -43 l 1406 -43 b 1447 -1 1429 -43 1447 -25 b 1406 40 1447 22 1429 40 l 961 40 b 919 -1 938 40 919 22 b 961 -43 919 -25 938 -43 z m 803 888 l 803 -1 b 844 -43 803 -25 821 -43 b 886 -1 868 -43 886 -25 l 886 888 b 844 929 886 911 868 929 b 803 888 821 929 803 911 z m 1404 929 l 964 929 b 922 888 940 929 922 911 b 964 846 922 864 940 846 l 1404 846 b 1446 888 1428 846 1446 864 b 1404 929 1446 911 1428 929 z "},"":{"ha":1514,"x_min":0,"x_max":0,"o":"m 447 -39 b 768 60 551 -49 672 -19 b 774 119 786 75 789 101 b 714 125 758 138 732 140 b 454 44 636 61 539 38 l 449 44 b 271 115 385 51 322 76 b 154 269 219 154 179 208 b 125 457 131 328 121 393 b 125 471 125 461 125 465 b 174 640 131 529 147 588 b 335 808 204 700 257 767 b 519 844 382 833 447 851 l 519 844 b 696 775 592 838 653 808 b 754 782 714 761 740 764 b 747 840 768 800 765 826 b 529 928 685 890 608 921 l 529 928 b 299 881 450 935 369 918 b 103 676 213 835 146 761 b 46 476 71 614 51 546 b 46 458 46 469 46 464 b 82 236 42 383 53 307 b 225 47 113 163 161 96 b 443 -40 288 -1 364 -32 b 449 -40 444 -40 447 -40 z m 964 435 l 1322 435 b 1364 476 1346 435 1364 453 b 1322 518 1364 500 1346 518 l 964 518 b 922 476 940 518 922 500 b 964 435 922 453 940 435 z m 961 -43 l 1406 -43 b 1447 -1 1429 -43 1447 -25 b 1406 40 1447 22 1429 40 l 961 40 b 919 -1 938 40 919 22 b 961 -43 919 -25 938 -43 z m 803 888 l 803 -1 b 844 -43 803 -25 821 -43 b 886 -1 868 -43 886 -25 l 886 888 b 844 929 886 911 868 929 b 803 888 821 929 803 911 z m 1404 929 l 964 929 b 922 888 940 929 922 911 b 964 846 922 864 940 846 l 1404 846 b 1446 888 1428 846 1446 864 b 1404 929 1446 911 1428 929 z "}}}
